<svg width="71" height="70" viewBox="0 0 71 70" fill="none" xmlns="http://www.w3.org/2000/svg">
<path d="M23.9181 38.6367C23.1701 38.6367 22.4522 38.8677 21.8426 39.304C20.2416 40.4503 19.8714 42.6853 21.0177 44.2862C21.6868 45.2207 22.773 45.7787 23.9237 45.7787C24.6717 45.7787 25.3896 45.5476 25.9992 45.1114C27.6002 43.9651 27.97 41.7301 26.8241 40.1292C26.155 39.1947 25.0688 38.6367 23.9181 38.6367ZM25.1194 43.8817C24.2244 44.5239 22.8826 44.2936 22.2467 43.4064C21.5861 42.483 21.7994 41.1943 22.7224 40.5337C23.0741 40.2812 23.4878 40.1484 23.9181 40.1484C24.5824 40.1484 25.2091 40.4702 25.5951 41.009C26.2557 41.9324 26.0424 43.2211 25.1194 43.8817Z" fill="white"/>
<path d="M21.8426 29.4669C22.4526 29.9031 23.1704 30.1341 23.9189 30.1341C25.0692 30.1341 26.1553 29.5761 26.8241 28.6417C27.97 27.0407 27.6002 24.8057 25.9992 23.6594C25.3896 23.2232 24.6717 22.9922 23.9237 22.9922C22.773 22.9922 21.6868 23.5502 21.0177 24.4846C19.8714 26.0856 20.2416 28.3206 21.8426 29.4669ZM22.2467 25.3645C22.6327 24.8257 23.2594 24.5038 23.9237 24.5038C24.354 24.5038 24.7677 24.6367 25.1194 24.8891C26.0424 25.5497 26.2557 26.8385 25.5951 27.7619C24.9578 28.6498 23.6162 28.8779 22.7224 28.2372C21.7994 27.5766 21.5861 26.2878 22.2467 25.3645Z" fill="white"/>
<path d="M52.7164 21.7489C51.0745 21.7489 49.7385 20.4062 49.7385 18.7558C49.7385 18.3381 49.4001 18 48.9827 18H36.2846C35.8672 18 35.5288 18.3381 35.5288 18.7558C35.5288 20.4062 34.1928 21.7489 32.5509 21.7489C32.1335 21.7489 31.795 22.0869 31.795 22.5047V27.3155L29.7919 25.8828C29.7808 25.7879 29.7746 25.693 29.759 25.5981C29.5006 24.0385 28.6503 22.673 27.3649 21.7526C26.3541 21.0292 25.1642 20.6461 23.9242 20.6461C22.0173 20.6461 20.2167 21.571 19.1077 23.1203C18.1872 24.4053 17.8226 25.9723 18.081 27.5319C18.33 29.0378 19.1355 30.3587 20.3475 31.2768C20.3602 31.2871 20.3667 31.3021 20.3802 31.3118L24.7278 34.3867L20.5411 37.3459L20.475 37.3929C20.4749 37.393 20.4751 37.3928 20.475 37.3929C20.4748 37.393 20.4744 37.3933 20.4742 37.3934L20.3824 37.4588C20.3712 37.4668 20.366 37.4792 20.3553 37.4877C19.1388 38.4059 18.3306 39.7294 18.081 41.2386C17.8226 42.799 18.1872 44.366 19.1077 45.6511C20.2163 47.1996 22.0166 48.1245 23.9238 48.1245C25.1639 48.1245 26.3537 47.7421 27.3649 47.018C28.6503 46.0976 29.5006 44.7321 29.759 43.1725C29.7746 43.0781 29.7806 42.9839 29.7917 42.8895L31.795 41.4555V47.2653C31.795 47.6831 32.1335 48.0211 32.5509 48.0211C34.1928 48.0211 35.5288 49.3638 35.5288 51.0142C35.5288 51.4319 35.8672 51.77 36.2846 51.77H48.9827C49.4001 51.77 49.7385 51.4319 49.7385 51.0142C49.7385 49.3638 51.0745 48.0211 52.7164 48.0211C53.1338 48.0211 53.4722 47.6831 53.4722 47.2653V22.5047C53.4722 22.0869 53.1338 21.7489 52.7164 21.7489ZM29.7262 41.0769C29.5665 40.2524 29.2358 39.4636 28.7323 38.7601C27.7573 37.3983 26.247 36.5203 24.6002 36.328L38.379 26.5886C40.6088 24.9973 43.6288 25.1183 45.7198 26.8832L47.4751 28.3719L29.7262 41.0769ZM19.5719 27.2854C19.38 26.1236 19.6513 24.9574 20.3366 24.0001C21.1626 22.8464 22.5037 22.1578 23.9242 22.1578C24.8468 22.1578 25.7322 22.4427 26.4851 22.9822C27.442 23.6672 28.0753 24.6836 28.2676 25.8454C28.4599 27.0064 28.1883 28.1734 27.5033 29.1307C26.6777 30.2836 25.3369 30.9723 23.9165 30.9723C22.9938 30.9723 22.1077 30.6874 21.3545 30.1478C20.3975 29.4628 19.7642 28.4465 19.5719 27.2854ZM24.596 32.4429C26.2443 32.2517 27.7565 31.3735 28.7323 30.0105C29.2357 29.3071 29.5663 28.5185 29.7261 27.6942L31.795 29.1739V29.3915L26.0368 33.4615L24.596 32.4429ZM28.2676 42.9252C28.0753 44.087 27.442 45.1034 26.4851 45.7884C25.7318 46.3279 24.8461 46.6128 23.9238 46.6128C22.5033 46.6128 21.1622 45.9242 20.3366 44.7712C19.6513 43.8139 19.38 42.647 19.5719 41.4859C19.7642 40.3241 20.3975 39.3078 21.3545 38.6228C22.1077 38.0832 22.9934 37.7983 23.9161 37.7983C25.3366 37.7983 26.6777 38.487 27.5033 39.6399C28.1883 40.5972 28.4599 41.7642 28.2676 42.9252ZM48.2899 50.2584H36.9773C36.6595 48.3799 35.1789 46.8933 33.3067 46.5737V40.3734L49.1428 29.0377C49.3322 28.9019 49.4484 28.6864 49.458 28.4538C49.4676 28.2213 49.3694 27.997 49.1919 27.8464L46.696 25.7287C44.0742 23.5181 40.2933 23.3646 37.5036 25.3567L33.3067 28.3231V23.1963C35.1789 22.8767 36.6595 21.3901 36.9773 19.5116H48.2899C48.6077 21.3901 50.0883 22.8767 51.9606 23.1963V36.869H49.6676C49.2502 36.869 48.9118 37.2071 48.9118 37.6249C48.9118 38.0426 49.2502 38.3807 49.6676 38.3807H51.9606V46.5737C50.0883 46.8933 48.6077 48.3799 48.2899 50.2584Z" fill="white"/>
<path d="M39.6347 38.3808H42.0627C42.4801 38.3808 42.8186 38.0427 42.8186 37.625C42.8186 37.2072 42.4801 36.8691 42.0627 36.8691H39.6347C39.2173 36.8691 38.8789 37.2072 38.8789 37.625C38.8789 38.0427 39.2173 38.3808 39.6347 38.3808Z" fill="white"/>
<path d="M44.4853 38.3808H46.9133C47.3307 38.3808 47.6692 38.0427 47.6692 37.625C47.6692 37.2072 47.3307 36.8691 46.9133 36.8691H44.4853C44.0679 36.8691 43.7295 37.2072 43.7295 37.625C43.7295 38.0427 44.0679 38.3808 44.4853 38.3808Z" fill="white"/>
<path d="M47.3387 41.4512H37.9267C37.5093 41.4512 37.1709 41.7892 37.1709 42.207C37.1709 42.6248 37.5093 42.9628 37.9267 42.9628H47.3387C47.7561 42.9628 48.0946 42.6248 48.0946 42.207C48.0946 41.7892 47.7561 41.4512 47.3387 41.4512Z" fill="white"/>
<path d="M45.2537 44.7871H40.0117C39.5943 44.7871 39.2559 45.1252 39.2559 45.5429C39.2559 45.9607 39.5943 46.2988 40.0117 46.2988H45.2537C45.6711 46.2988 46.0096 45.9607 46.0096 45.5429C46.0096 45.1252 45.6711 44.7871 45.2537 44.7871Z" fill="white"/>
</svg>
