<svg width="71" height="70" viewBox="0 0 71 70" fill="none" xmlns="http://www.w3.org/2000/svg">
<path d="M36.6449 17C33.4104 17 30.3028 17.9728 27.655 19.8069C25.0627 21.6011 23.0808 24.097 21.9233 27.0235C21.6934 27.6056 21.5587 28.3073 21.416 29.1207C21.091 30.8989 20.647 33.331 18.7444 36.1459C18.4431 36.5925 18.4749 36.9912 18.5541 37.2384C18.8316 38.0916 19.9811 38.5063 21.3129 38.9847C21.963 39.2239 23.1759 39.6545 23.3345 39.9496V48.2427C23.3345 48.6095 23.4692 48.9364 23.7229 49.1916C24.4047 49.8694 25.792 49.8534 27.2665 49.8375C27.98 49.8295 29.2801 49.8216 29.5893 50.0209V53.3621C29.5893 53.7129 29.8747 54 30.2235 54H44.6913C44.945 54 45.167 53.8485 45.2701 53.6172C45.3731 53.386 45.3255 53.1149 45.1591 52.9315C45.1353 52.9075 42.7808 50.2841 44.1998 48.6892C44.3346 48.5377 44.7548 48.2427 45.2066 47.9237C47.022 46.6478 50.3913 44.2795 50.1772 40.9623C50.0028 38.3069 47.6483 35.7313 42.979 33.1237C44.0809 32.3741 45.5317 31.0504 46.039 29.0728C46.372 27.7651 46.1579 26.3856 45.9677 25.1735C45.825 24.2724 45.6902 23.4272 45.8408 22.8849C45.8963 22.7015 45.8567 22.5022 45.7457 22.3427C45.6347 22.1832 45.4603 22.0875 45.2621 22.0795C43.6608 21.9918 41.9801 22.7015 40.6958 24.0013C39.5226 25.1894 38.8329 26.7045 38.8012 28.1478C38.7853 28.8815 38.9201 29.5832 39.1341 30.2291C38.048 29.5912 36.7479 29.0808 35.3209 29.0091C35.2258 29.0011 35.1228 29.0011 35.0276 29.0011C33.1329 29.0011 31.1352 29.8543 29.5417 31.3295C27.8849 32.8685 26.9098 34.894 26.8781 36.8955C26.8781 37.0869 26.9574 37.2703 27.108 37.3978C27.2586 37.5175 27.4489 37.5733 27.6391 37.5334C27.7977 37.5015 27.9721 37.4856 28.1703 37.4856C28.8917 37.4856 29.7954 37.7009 30.7547 37.9241C31.92 38.1953 33.236 38.5063 34.544 38.5063C34.9959 38.5063 35.4319 38.4664 35.8362 38.3946C38.9518 37.8205 40.9892 35.3804 41.9167 33.9929C46.4195 36.433 48.774 38.8093 48.9167 41.05C49.0832 43.6496 46.2055 45.675 44.4852 46.8871C43.9065 47.2937 43.4943 47.5808 43.2644 47.844C42.3368 48.8886 42.2259 50.2761 42.9552 51.8629C43.1058 52.1819 43.2723 52.4769 43.4309 52.7401H30.8577V50.0129C30.8577 49.686 30.7388 49.3989 30.5089 49.1756C29.9064 48.5776 28.6697 48.5856 27.2507 48.6015C26.5768 48.6095 25.8713 48.6175 25.3322 48.5457C24.7059 48.466 24.6029 48.3144 24.5949 48.3144C24.5949 48.3144 24.5949 48.2985 24.5949 48.2825V39.9416C24.5949 38.8332 23.2076 38.3308 21.7331 37.7966C21.1147 37.5733 19.989 37.1666 19.775 36.8875L19.7829 36.8795C21.8361 33.8334 22.3118 31.2498 22.6527 29.3599C22.7875 28.6103 22.9064 27.9724 23.0966 27.5019C25.3243 21.8961 30.6437 18.2759 36.6449 18.2759C44.6913 18.2759 51.2316 24.8545 51.2316 32.9483C51.2316 33.8095 51.184 34.6468 51.0968 35.4282C51.0572 35.7791 51.3109 36.0981 51.6517 36.1379C52.0006 36.1778 52.3177 35.9226 52.3573 35.5797C52.4524 34.7504 52.5 33.8653 52.5 32.9563C52.5 24.1528 45.389 17 36.6449 17ZM40.0616 28.1797C40.1092 26.1224 42.0594 23.6664 44.5011 23.3793C44.4852 23.9933 44.5962 24.6711 44.7072 25.3808C44.8895 26.5291 45.0719 27.7093 44.8023 28.7619C44.3663 30.4603 43.0186 31.5927 42.0752 32.1987C41.885 31.3136 41.7106 29.7188 42.2893 27.8927C42.3923 27.5578 42.21 27.1989 41.877 27.0873C41.5441 26.9836 41.1873 27.167 41.0764 27.5019C40.7196 28.6103 40.6166 29.655 40.6245 30.5401C40.2915 29.8384 40.0458 29.025 40.0616 28.1797ZM35.5984 37.1347C35.2655 37.1985 34.9087 37.2304 34.5361 37.2304C33.3787 37.2304 32.1896 36.9513 31.0401 36.6802C30.0253 36.4409 29.0582 36.2177 28.202 36.2097C28.6856 32.8685 32.1578 30.2769 35.0276 30.2769C35.1069 30.2769 35.1862 30.2769 35.2575 30.2849C36.7796 30.3567 38.159 31.0584 39.2213 31.808C37.9053 31.6086 36.2009 31.5528 34.3062 32.0153C33.9653 32.095 33.7592 32.4459 33.8385 32.7888C33.9178 33.1317 34.2666 33.339 34.6075 33.2593C37.3266 32.5974 39.6335 33.1237 40.7355 33.4746C39.8555 34.7185 38.1194 36.6642 35.5984 37.1347Z" fill="white"/>
</svg>
