<svg width="71" height="70" viewBox="0 0 71 70" fill="none" xmlns="http://www.w3.org/2000/svg">
<path d="M53.1067 23.1922C53.1067 17.8695 49.4193 15.0981 45.9681 14.2796C42.4464 13.4436 37.7779 14.346 35.213 18.1162C32.6478 14.346 27.9794 13.4436 24.4579 14.2796C21.0068 15.0981 17.3193 17.8695 17.3193 23.1922C17.3193 28.8518 21.6477 34.2283 24.2276 36.9291C27.7382 40.6043 32.1746 43.7385 35.0163 44.5507C35.0803 44.5688 35.1465 44.5779 35.213 44.5779C35.2716 44.5781 35.33 44.5708 35.3867 44.5563C41.2965 43.0793 53.1067 32.8051 53.1067 23.1922ZM31.6343 28.8315C31.627 29.3206 31.5937 29.8089 31.5343 30.2944L30.2783 32.8058C30.2286 32.9053 30.2028 33.0148 30.2028 33.126C30.2028 33.2371 30.2286 33.3467 30.2783 33.4461L31.6343 36.1581V41.2698C28.0817 38.8946 24.9644 35.9258 22.4186 32.4934L23.6408 30.66C23.7192 30.5424 23.761 30.4043 23.7611 30.263V25.1584L24.7955 25.8483C24.9131 25.9266 25.0513 25.9684 25.1926 25.9685H30.2028C30.3441 25.9684 30.4822 25.9266 30.5998 25.8482L31.6343 25.1584V28.8315ZM35.2641 34.2919C35.2304 34.3764 35.2131 34.4665 35.213 34.5575V43.1138C34.4678 42.8588 33.7488 42.5329 33.0658 42.1407V35.989C33.0658 35.8778 33.04 35.7682 32.9903 35.6688L31.7189 33.126L32.8393 30.8851C32.9996 30.2126 33.0756 29.5227 33.0658 28.8315V23.8212C33.0658 23.6917 33.0307 23.5646 32.9641 23.4534C32.8975 23.3423 32.802 23.2513 32.6878 23.1902C32.5736 23.129 32.4449 23.1001 32.3155 23.1063C32.1861 23.1126 32.0608 23.1539 31.953 23.2257L29.9861 24.537H25.4092L23.4424 23.2257C23.3346 23.1539 23.2093 23.1126 23.0799 23.1063C22.9505 23.1 22.8218 23.129 22.7076 23.1901C22.5933 23.2513 22.4979 23.3423 22.4313 23.4534C22.3647 23.5646 22.3296 23.6917 22.3296 23.8212V30.0463L21.5449 31.2233C19.8638 28.6113 18.7508 25.8392 18.7508 23.1922C18.7508 18.7034 21.8696 16.3646 24.7882 15.6719C25.5029 15.5046 26.2346 15.4206 26.9687 15.4217C28.5246 15.3678 30.0641 15.7547 31.4096 16.5379C32.7552 17.3211 33.8519 18.4687 34.5735 19.8483C34.6396 19.9589 34.7333 20.0505 34.8454 20.114C34.9575 20.1776 35.0842 20.2111 35.213 20.2111C35.3419 20.2111 35.4686 20.1776 35.5807 20.114C35.6928 20.0505 35.7865 19.9589 35.8526 19.8483C37.8576 15.8599 42.3303 14.8877 45.6379 15.6719C48.5564 16.3646 51.6752 18.7034 51.6752 23.1922C51.6752 26.1978 50.3446 29.354 48.3755 32.2541L47.3808 30.762V28.5309L49.5252 27.3056C49.6517 27.2333 49.7532 27.1241 49.816 26.9925C49.8788 26.861 49.9 26.7135 49.8768 26.5696L49.2397 22.6393C49.187 22.3961 49.072 22.1708 48.906 21.9854C48.7401 21.8 48.5288 21.6609 48.2929 21.5817L45.46 20.6374C45.387 20.6129 45.3105 20.6004 45.2335 20.6004H38.7918C38.7148 20.6004 38.6383 20.6129 38.5653 20.6374L35.732 21.5817C35.4911 21.6642 35.2762 21.8087 35.1089 22.0006C34.9415 22.1925 34.8276 22.4251 34.7786 22.6749L34.1485 26.5696C34.1253 26.7135 34.1465 26.861 34.2093 26.9925C34.2721 27.1241 34.3736 27.2333 34.5001 27.3056L36.6445 28.5309V30.841L35.2641 34.2919ZM36.6445 42.5984V34.6952L38.025 31.2443C38.0586 31.1598 38.0759 31.0697 38.076 30.9787V28.1157C38.076 27.9896 38.0426 27.8656 37.9793 27.7565C37.916 27.6474 37.8249 27.557 37.7154 27.4944L35.6408 26.3089L36.1853 22.9392L38.9078 22.0319H45.1213L47.8333 22.9042L48.3845 26.3089L46.3099 27.4944C46.2004 27.557 46.1093 27.6474 46.046 27.7565C45.9827 27.8656 45.9493 27.9896 45.9493 28.1157V30.9787C45.9493 31.12 45.9911 31.2582 46.0695 31.3757L47.4833 33.4964C44.3132 37.6689 39.9593 41.1427 36.6445 42.5984Z" fill="white"/>
<path d="M54.5803 42.3092C54.2906 42.3163 54.0057 42.3841 53.744 42.5084C53.4823 42.6327 53.2496 42.8106 53.0611 43.0305L52.8486 43.2784L52.8975 42.9851C52.9743 42.5238 52.8697 42.0506 52.6054 41.6647C52.3412 41.2788 51.9379 41.0101 51.48 40.9149C51.0221 40.8197 50.5452 40.9053 50.149 41.1539C49.7528 41.4025 49.4682 41.7947 49.3548 42.2484L48.8658 44.2062L47.0297 47.8779L45.8577 48.2689L46.1804 47.7102C46.4122 47.2466 46.4604 46.7126 46.3154 46.215C46.1704 45.7174 45.8428 45.2929 45.3982 45.0265C44.9537 44.76 44.4249 44.6713 43.9177 44.778C43.4105 44.8847 42.9623 45.179 42.6628 45.602C42.6628 45.602 40.1409 49.1661 40.0724 49.2626L40.0696 49.2661C38.5319 51.4308 38.6657 54.5873 38.7734 57.1232C38.7891 57.4937 38.8045 57.8522 38.8139 58.1947L40.2447 58.1556C40.2353 57.8061 40.2195 57.4399 40.2035 57.0624C40.1053 54.7446 39.9826 51.8606 41.2369 50.095L41.2254 50.0867C41.4546 49.7882 42.0456 48.9529 43.8315 46.4296C43.8891 46.348 43.9655 46.2814 44.0543 46.2354C44.143 46.1895 44.2415 46.1655 44.3414 46.1654C44.4481 46.1646 44.5531 46.1915 44.6463 46.2434C44.7395 46.2954 44.8176 46.3706 44.873 46.4618C44.9278 46.5454 44.9609 46.6413 44.9693 46.7409C44.9776 46.8405 44.961 46.9406 44.9208 47.0321L43.3883 49.6833C43.1989 50.0102 43.0992 50.3813 43.0993 50.7591H44.5308C44.5308 50.6332 44.564 50.5095 44.6269 50.4005L44.7788 50.1375L48.011 49.0588L48.0341 49.0703L48.0456 49.0472L49.9954 48.3965C50.335 48.2695 50.6368 48.0583 50.8726 47.7828L54.148 43.9615C54.2061 43.894 54.2777 43.8393 54.3583 43.8012C54.4388 43.763 54.5265 43.7422 54.6156 43.74C54.7071 43.7365 54.7982 43.7533 54.8824 43.7892C54.9666 43.8251 55.0419 43.8792 55.1028 43.9475C55.1995 44.0661 55.2535 44.2139 55.2561 44.3669C55.2586 44.52 55.2095 44.6694 55.1168 44.7912L51.1337 50.4809C51.0345 50.6225 50.9185 50.7515 50.7884 50.8653L48.0841 53.232C47.1401 54.0575 44.96 56.1852 45.0977 58.106L46.5257 58.0039C46.4505 56.9576 47.8258 55.3597 49.0266 54.3099L51.7313 51.9432C51.948 51.753 52.1411 51.5376 52.3065 51.3015L56.2896 45.6119C56.5724 45.2204 56.7121 44.7437 56.6852 44.2615C56.6584 43.7794 56.4667 43.3211 56.1422 42.9635C55.9447 42.7479 55.7028 42.5777 55.4331 42.4648C55.1634 42.3518 54.8725 42.2987 54.5803 42.3092ZM51.0474 45.3796L49.7853 46.8518C49.7132 46.9374 49.6217 47.0045 49.5183 47.0475L48.9508 47.2369L50.1813 44.7759C50.2048 44.7291 50.2229 44.6799 50.2355 44.6291L50.7437 42.5958C50.7641 42.5137 50.8115 42.4408 50.8782 42.3887C50.9449 42.3366 51.0271 42.3084 51.1117 42.3085C51.1667 42.3086 51.2211 42.3206 51.2711 42.3438C51.321 42.367 51.3653 42.4008 51.4009 42.4429C51.4364 42.4849 51.4624 42.5341 51.4771 42.5872C51.4917 42.6403 51.4946 42.6959 51.4856 42.7502L51.0474 45.3796Z" fill="white"/>
<path d="M27.7874 45.6026C27.4858 45.1763 27.0334 44.8807 26.5219 44.7758C26.0104 44.6709 25.4782 44.7645 25.0332 45.0376C24.5881 45.3107 24.2637 45.7429 24.1256 46.2464C23.9876 46.75 24.0462 47.2872 24.2897 47.7491L24.5902 48.2688L23.4207 47.8787L21.5844 44.2067L21.0951 42.2482C20.9816 41.7945 20.6969 41.4023 20.3007 41.1537C19.9045 40.9052 19.4275 40.8196 18.9696 40.915C18.5117 41.0103 18.1085 41.2791 17.8444 41.6651C17.5802 42.0511 17.4757 42.5243 17.5527 42.9856L17.6015 43.2781L17.3891 43.0303C17.1997 42.8098 16.9659 42.6316 16.703 42.5074C16.4401 42.3832 16.1539 42.3158 15.8632 42.3096C15.5726 42.3033 15.2838 42.3583 15.0158 42.4711C14.7478 42.5838 14.5065 42.7518 14.3077 42.9639C13.9834 43.3216 13.7917 43.7799 13.765 44.2621C13.7382 44.7442 13.8778 45.2209 14.1606 45.6123L18.143 51.3013C18.3084 51.5377 18.5017 51.7534 18.7186 51.9436L21.424 54.3104C22.6241 55.3602 23.9993 56.9581 23.9242 58.0044L25.3522 58.1065C25.4903 56.1857 23.3102 54.058 22.3665 53.2325L19.6615 50.8658C19.5313 50.7522 19.4154 50.6231 19.3165 50.4814L15.3334 44.7917C15.2407 44.67 15.1916 44.5206 15.1941 44.3676C15.1966 44.2145 15.2505 44.0668 15.3471 43.9481C15.408 43.8815 15.4823 43.8285 15.5652 43.7927C15.648 43.7569 15.7375 43.739 15.8278 43.7404C15.918 43.7417 16.007 43.7621 16.0888 43.8003C16.1705 43.8386 16.2433 43.8937 16.3022 43.9621L19.5766 47.7826C19.8186 48.0644 20.1293 48.279 20.4786 48.4054L22.4047 49.0481L22.4161 49.0709L22.4389 49.0595L25.6707 50.1378L25.8233 50.4017C25.8853 50.5599 25.9178 50.7281 25.9194 50.898H27.3509C27.3504 50.4766 27.2517 50.0611 27.0625 49.6846L25.5496 47.0704C25.5019 46.9751 25.4794 46.8693 25.4842 46.7628C25.4889 46.6564 25.5208 46.553 25.5768 46.4623C25.6328 46.3717 25.7111 46.2969 25.8041 46.245C25.8972 46.1931 26.0019 46.1659 26.1084 46.1659C26.2084 46.1659 26.307 46.1899 26.3958 46.2359C26.4845 46.2819 26.561 46.3485 26.6187 46.4301C28.5552 49.1659 29.0648 49.8866 29.2164 50.0935L29.2129 50.0956C30.4672 51.8612 30.3449 54.7458 30.2467 57.0636C30.2306 57.4411 30.2149 57.8073 30.2055 58.1561L31.6363 58.1952C31.6457 57.8534 31.6611 57.4949 31.6768 57.1244C31.7844 54.5885 31.9183 51.432 30.3795 49.2659C30.339 49.2086 27.7874 45.6026 27.7874 45.6026ZM20.9556 47.0564C20.8429 47.014 20.7428 46.9438 20.6645 46.8523L19.4029 45.3801L18.9646 42.75C18.9556 42.6958 18.9585 42.6402 18.9732 42.5871C18.9878 42.5341 19.0138 42.4849 19.0494 42.4429C19.085 42.4009 19.1293 42.3672 19.1792 42.3441C19.2292 42.321 19.2835 42.309 19.3386 42.309C19.423 42.3089 19.5051 42.337 19.5717 42.389C19.6384 42.4409 19.6857 42.5136 19.7062 42.5956L20.2147 44.6296C20.2273 44.6804 20.2454 44.7296 20.2689 44.7764L21.4996 47.2379L20.9556 47.0564Z" fill="white"/>
<path d="M25.9072 28.7323C26.3025 28.7323 26.6229 28.4118 26.6229 28.0165C26.6229 27.6212 26.3025 27.3008 25.9072 27.3008C25.5119 27.3008 25.1914 27.6212 25.1914 28.0165C25.1914 28.4118 25.5119 28.7323 25.9072 28.7323Z" fill="white"/>
<path d="M29.4853 28.7323C29.8806 28.7323 30.201 28.4118 30.201 28.0165C30.201 27.6212 29.8806 27.3008 29.4853 27.3008C29.09 27.3008 28.7695 27.6212 28.7695 28.0165C28.7695 28.4118 29.09 28.7323 29.4853 28.7323Z" fill="white"/>
<path d="M40.0448 26.3241C40.4401 26.3241 40.7606 26.0036 40.7606 25.6083C40.7606 25.213 40.4401 24.8926 40.0448 24.8926C39.6496 24.8926 39.3291 25.213 39.3291 25.6083C39.3291 26.0036 39.6496 26.3241 40.0448 26.3241Z" fill="white"/>
<path d="M44.3378 26.3241C44.7331 26.3241 45.0536 26.0036 45.0536 25.6083C45.0536 25.213 44.7331 24.8926 44.3378 24.8926C43.9425 24.8926 43.6221 25.213 43.6221 25.6083C43.6221 26.0036 43.9425 26.3241 44.3378 26.3241Z" fill="white"/>
<path d="M42.1906 29.1893C42.6847 29.1893 43.0853 28.8689 43.0853 28.4736C43.0853 28.0783 42.6847 27.7578 42.1906 27.7578C41.6965 27.7578 41.2959 28.0783 41.2959 28.4736C41.2959 28.8689 41.6965 29.1893 42.1906 29.1893Z" fill="white"/>
</svg>
