<svg width="71" height="70" viewBox="0 0 71 70" fill="none" xmlns="http://www.w3.org/2000/svg">
<path d="M22.986 21.2344C22.6519 21.2344 22.3596 21.5267 22.3596 21.8607V24.7001C22.3596 25.2012 21.9421 25.6187 21.4828 25.6187C20.9817 25.6187 20.5642 25.2012 20.5642 24.7001V21.8607C20.5642 21.5267 20.2719 21.2344 19.9378 21.2344C19.6038 21.2344 19.3115 21.4849 19.3115 21.8607V24.7001C19.3115 25.8693 20.2719 26.8714 21.4828 26.8714C22.6519 26.8714 23.6123 25.911 23.6123 24.7001V21.8607C23.6123 21.4849 23.32 21.2344 22.986 21.2344Z" fill="white"/>
<path d="M29.3338 21.2748C28.9997 21.1495 28.6657 21.3165 28.5404 21.6506L27.4548 24.4482L26.4109 21.6088C26.2857 21.2748 25.9099 21.1077 25.6176 21.233C25.2835 21.3583 25.1165 21.7341 25.2418 22.0264L26.912 26.369C26.9955 26.6195 27.246 26.7865 27.4966 26.7865C27.7471 26.7865 27.9976 26.6195 28.0811 26.369L29.7513 22.0264C29.8348 21.7341 29.6678 21.4 29.3338 21.2748Z" fill="white"/>
<path d="M34.7624 43.4863C26.0774 43.4863 15.9727 44.906 15.9727 48.9563V52.4221C15.9727 52.7561 16.2649 53.0484 16.599 53.0484H52.9259C53.2599 53.0484 53.5522 52.7561 53.5522 52.4221V48.9563C53.5522 44.906 43.4475 43.4863 34.7624 43.4863ZM34.7624 44.739C39.4807 44.739 43.865 45.1566 47.1219 45.9499C49.7942 46.5763 51.5479 47.4531 52.1325 48.33H17.3923C18.645 46.2422 25.8268 44.739 34.7624 44.739ZM17.2253 51.7957V49.5827H52.2995V51.7957H17.2253Z" fill="white"/>
<path d="M52.9259 30.7116H49.3767C49.0426 30.7116 48.7504 31.0039 48.7504 31.3379C48.7504 31.672 49.0426 31.9643 49.3767 31.9643H51.3809L43.4892 39.8561L39.773 36.1398L43.0717 32.8411V34.8454C43.0717 35.1795 43.364 35.4718 43.698 35.4718C44.032 35.4718 44.3243 35.1795 44.3243 34.8454V31.3379C44.3243 31.0039 44.032 30.7116 43.698 30.7116H40.1906C39.8565 30.7116 39.5642 31.0039 39.5642 31.3379C39.5642 31.672 39.8565 31.9643 40.1906 31.9643H42.1948L38.8962 35.263L34.5119 30.8786C34.2614 30.6281 33.8856 30.6281 33.635 30.8786C33.3845 31.1291 33.3845 31.5049 33.635 31.7555L38.0193 36.1398L34.3031 39.8561L26.7037 32.2983C30.3781 31.2962 33.0922 27.9975 33.0922 24.0307C33.0922 19.3122 29.2508 15.4707 24.5324 15.4707C19.8141 15.4707 15.9727 19.3122 15.9727 24.0307C15.9727 28.7491 19.8141 32.5906 24.5324 32.5906C24.7412 32.5906 24.9917 32.5906 25.2005 32.5488L33.8438 41.1923C33.9691 41.3176 34.1361 41.3593 34.3031 41.3593C34.4701 41.3593 34.6372 41.2758 34.7624 41.1923L38.9379 37.0167L43.1134 41.1923C43.2387 41.3176 43.4057 41.3593 43.5727 41.3593C43.7397 41.3593 43.9068 41.3176 44.032 41.1923L52.383 32.8411V34.8454C52.383 35.1795 52.6753 35.4718 53.0094 35.4718C53.3434 35.4718 53.6357 35.1795 53.6357 34.8454V31.3379C53.5522 30.9621 53.2599 30.7116 52.9259 30.7116ZM17.2253 24.0307C17.2253 19.9803 20.4822 16.7234 24.5324 16.7234C28.5827 16.7234 31.8396 19.9803 31.8396 24.0307C31.8396 28.081 28.5409 31.3379 24.5324 31.3379C20.524 31.3379 17.2253 28.0392 17.2253 24.0307Z" fill="white"/>
</svg>
