<svg width="71" height="70" viewBox="0 0 71 70" fill="none" xmlns="http://www.w3.org/2000/svg">
<path d="M54.7507 34.0141C51.8079 31.5944 47.2841 31.4167 43.9933 33.5943C43.6535 33.8191 43.5602 34.2767 43.785 34.6168C44.0099 34.9566 44.4678 35.0495 44.8075 34.8251C47.5266 33.0269 51.3982 33.1681 53.8132 35.154C60.1877 41.0375 53.5659 50.0882 46.0779 49.9937C42.0755 49.9563 38.3829 47.3479 37.0981 43.6499C34.3993 35.1015 43.252 27.4363 51.3598 31.1718C52.2348 31.5899 52.8756 30.289 52.0125 29.8481C47.9532 27.8467 42.6656 28.5957 39.1546 31.6693C31.3657 38.6546 35.5361 51.2551 46.1634 51.4699C55.0194 51.5439 62.2157 40.7122 54.7507 34.0141Z" fill="white"/>
<path d="M41.8493 38.6621C39.6493 38.5642 38.6996 41.581 40.5884 42.7449C41.0146 43.1509 42.264 44.4779 43.4487 45.7843C44.265 46.7202 45.8132 46.7466 46.6642 45.8516C46.6642 45.8516 52.9454 39.4807 52.9454 39.4807C53.3608 39.0595 53.5875 38.5018 53.5831 37.9102C53.6145 35.9852 51.1221 34.9603 49.7937 36.3718C49.7937 36.3718 45.1481 41.0836 45.1481 41.0836C43.0862 38.8621 42.7306 38.6845 41.8493 38.6621ZM50.8446 37.4076C51.536 36.7203 52.5638 37.7388 51.8948 38.4442L45.6136 44.8155C45.476 44.9553 45.2843 45.0352 45.0883 45.0352V45.7731L45.0725 45.0349C44.8707 45.0309 44.6772 44.9426 44.5418 44.7931C43.4342 43.5714 42.0043 42.0409 41.5363 41.6114C40.7934 41.2568 40.9185 40.1752 41.777 40.1367C42.1383 40.1458 42.2911 40.1494 44.5864 42.6516C44.723 42.8004 44.9147 42.8868 45.1168 42.8904C45.329 42.8836 45.5138 42.8148 45.6554 42.6707L50.8446 37.4076Z" fill="white"/>
<path d="M27.1717 44.232C27.1717 43.8245 26.8413 43.4941 26.4338 43.4941H23.6002C23.1927 43.4941 22.8623 43.8245 22.8623 44.232C22.8623 44.6395 23.1927 44.9699 23.6002 44.9699H26.4338C26.8413 44.9699 27.1717 44.6395 27.1717 44.232Z" fill="white"/>
<path d="M18.558 44.0019C19.4212 44.4325 20.0861 43.1356 19.2295 42.6875C12.9787 39.5028 14.3607 30.1052 21.2685 28.8562C21.5952 28.7971 21.8423 28.5269 21.8719 28.1962C22.1457 25.1381 24.672 22.8322 27.7482 22.8322C30.8124 22.8322 33.3935 25.2227 33.6237 28.274C33.646 28.7296 34.1325 29.0643 34.5666 28.9268C36.1832 28.4528 37.8352 28.8744 38.9995 30.043C39.2863 30.3334 39.7532 30.3356 40.0429 30.0495C40.9077 29.012 38.8842 28.1036 38.1565 27.7276C39.5628 19.957 50.5961 20.4087 51.3451 28.2628C51.7139 28.2753 52.4526 28.2476 52.8194 28.2077C51.9377 18.6422 38.6214 17.9708 36.7251 27.3296C36.1606 27.2464 35.5742 27.2376 34.9831 27.3264C33.3002 19.3306 21.9089 19.4396 20.4711 27.5178C12.5725 29.4315 11.2839 40.3141 18.558 44.0019Z" fill="white"/>
<path d="M34.9209 44.232C34.9209 43.8245 34.5905 43.4941 34.1831 43.4941H31.7183C31.3108 43.4941 30.9805 43.8245 30.9805 44.232C30.9805 44.6395 31.3108 44.9699 31.7183 44.9699H34.1831C34.5905 44.9699 34.9209 44.6395 34.9209 44.232Z" fill="white"/>
<path d="M19.3524 45.35L18.5483 46.5872C18.0269 47.3962 19.2529 48.1995 19.7856 47.3913C19.7855 47.3914 20.5897 46.1541 20.5897 46.1541C21.1044 45.3326 19.8949 44.5457 19.3524 45.35Z" fill="white"/>
<path d="M16.9398 49.0662L16.1353 50.3038C15.6137 51.1125 16.8397 51.9162 17.3725 51.1079C17.3725 51.1079 18.177 49.8704 18.177 49.8704C18.6996 49.06 17.4691 48.2586 16.9398 49.0662Z" fill="white"/>
<path d="M22.786 41.4238C22.4444 41.2022 21.9869 41.2984 21.7653 41.6403L20.9611 42.8776C20.7389 43.2191 20.8361 43.6763 21.1777 43.8983C21.5145 44.1184 21.9751 44.0262 22.1984 43.6817L23.0025 42.4445C23.2248 42.103 23.1275 41.6457 22.786 41.4238Z" fill="white"/>
<path d="M24.6098 39.9688L25.4139 38.7316C25.9363 37.921 24.706 37.1201 24.1767 37.9275C24.1767 37.9274 23.3725 39.1647 23.3725 39.1647C22.8589 39.9779 24.0657 40.7787 24.6098 39.9688Z" fill="white"/>
<path d="M30.9022 41.4238C30.5607 41.2022 30.1031 41.2984 29.8815 41.6403L29.0774 42.8776C28.8551 43.2191 28.9523 43.6763 29.2939 43.8983C29.6307 44.1184 30.0913 44.0262 30.3146 43.6817L31.1187 42.4445C31.341 42.103 31.2438 41.6457 30.9022 41.4238Z" fill="white"/>
<path d="M26.8798 47.6073C27.2166 47.8274 27.6772 47.7353 27.9005 47.3908L28.7047 46.1536C28.927 45.812 28.8297 45.3548 28.4881 45.1329C28.1466 44.9109 27.6898 45.0078 27.4675 45.3494L26.6633 46.5866C26.441 46.9282 26.5383 47.3854 26.8798 47.6073Z" fill="white"/>
<path d="M32.726 39.9688L33.5301 38.7316C34.0525 37.921 32.8222 37.1201 32.2929 37.9275L31.4888 39.1647C30.9751 39.9779 32.1819 40.7787 32.726 39.9688Z" fill="white"/>
<path d="M25.056 49.0662L24.2515 50.3038C23.7299 51.1125 24.9559 51.9162 25.4888 51.1079C25.4887 51.1079 26.2932 49.8704 26.2932 49.8704C26.8158 49.06 25.5853 48.2586 25.056 49.0662Z" fill="white"/>
<path d="M35.8323 46.3282C35.4915 46.1066 35.034 46.2025 34.8117 46.5447L34.0071 47.782C33.7848 48.1235 33.8818 48.5804 34.2237 48.8026C34.5601 49.0229 35.0212 48.9305 35.2444 48.5861L36.0489 47.3489C36.2712 47.0073 36.1743 46.5505 35.8323 46.3282Z" fill="white"/>
<path d="M32.3968 50.257L31.5923 51.4939C31.0709 52.3028 32.2957 53.1065 32.8296 52.2987C32.8295 52.2988 33.6341 51.0619 33.6341 51.0619C34.156 50.2511 32.9276 49.4506 32.3968 50.257Z" fill="white"/>
<path d="M48.143 34.4248C46.6362 35.3325 44.92 35.6061 43.1573 35.1875C42.7005 35.0664 42.2284 35.4258 42.2364 35.9034C42.2986 36.951 43.9603 36.7679 44.7195 36.8554C45.6843 36.9288 49.9729 36.1405 49.1572 34.6709C48.945 34.3225 48.4906 34.2119 48.143 34.4248Z" fill="white"/>
<path d="M44.7183 19.8831C45.1258 19.8831 45.4562 19.5527 45.4562 19.1452V17.6695C45.4562 17.262 45.1258 16.9316 44.7183 16.9316C44.3108 16.9316 43.9805 17.262 43.9805 17.6695V19.1452C43.9805 19.5527 44.3108 19.8831 44.7183 19.8831Z" fill="white"/>
<path d="M53.026 24.6764C53.3106 24.7246 54.4161 23.952 54.6715 23.8395C55.5025 23.3409 54.7804 22.0889 53.9328 22.5619L52.656 23.2997C52.0034 23.6473 52.301 24.7042 53.026 24.6764Z" fill="white"/>
<path d="M49.1468 21.0741C49.4938 21.2751 49.95 21.1581 50.1542 20.8017L50.8921 19.5177C51.0949 19.1646 50.9731 18.7135 50.6197 18.5103C50.267 18.3071 49.8159 18.4296 49.6123 18.7827L48.8745 20.0667C48.6716 20.4198 48.7934 20.8709 49.1468 21.0741Z" fill="white"/>
<path d="M53.5732 28.7379C53.5732 29.1454 53.9036 29.4757 54.3111 29.4757H55.7868C56.1943 29.4757 56.5247 29.1454 56.5247 28.7379C56.5247 28.3304 56.1943 28 55.7868 28H54.3111C53.9036 28 53.5732 28.3304 53.5732 28.7379Z" fill="white"/>
<path d="M39.2822 20.8019C39.7711 21.638 41.0378 20.9032 40.562 20.0669C40.562 20.067 39.8241 18.7829 39.8241 18.7829C39.6206 18.4295 39.1688 18.307 38.8168 18.5105C38.4633 18.7137 38.3416 19.1648 38.5444 19.5179L39.2822 20.8019Z" fill="white"/>
<path d="M34.7661 23.8397C35.027 23.9544 36.1278 24.721 36.4169 24.6756C37.142 24.7029 37.4406 23.645 36.7851 23.2979L35.5011 22.56C34.6537 22.0922 33.9324 23.3415 34.7661 23.8397Z" fill="white"/>
</svg>
