<svg width="50" height="51" viewBox="0 0 50 51" fill="none" xmlns="http://www.w3.org/2000/svg">
<path d="M25.0003 4.66602C13.4941 4.66602 4.16699 13.9931 4.16699 25.4993C4.16699 37.0056 13.4941 46.3327 25.0003 46.3327C36.5066 46.3327 45.8337 37.0056 45.8337 25.4993C45.8337 13.9931 36.5066 4.66602 25.0003 4.66602ZM22.917 18.7285V32.2702C22.917 32.6846 22.7524 33.082 22.4593 33.375C22.1663 33.6681 21.7689 33.8327 21.3545 33.8327C20.9401 33.8327 20.5427 33.6681 20.2496 33.375C19.9566 33.082 19.792 32.6846 19.792 32.2702V18.7285C19.792 18.3141 19.9566 17.9167 20.2496 17.6237C20.5427 17.3306 20.9401 17.166 21.3545 17.166C21.7689 17.166 22.1663 17.3306 22.4593 17.6237C22.7524 17.9167 22.917 18.3141 22.917 18.7285ZM35.417 18.7285V32.2702C35.417 32.6846 35.2524 33.082 34.9593 33.375C34.6663 33.6681 34.2689 33.8327 33.8545 33.8327C33.4401 33.8327 33.0427 33.6681 32.7496 33.375C32.4566 33.082 32.292 32.6846 32.292 32.2702V18.7285C32.292 18.3141 32.4566 17.9167 32.7496 17.6237C33.0427 17.3306 33.4401 17.166 33.8545 17.166C34.2689 17.166 34.6663 17.3306 34.9593 17.6237C35.2524 17.9167 35.417 18.3141 35.417 18.7285ZM29.167 21.8535V29.1452C29.167 29.5596 29.0024 29.957 28.7093 30.25C28.4163 30.5431 28.0189 30.7077 27.6045 30.7077C27.1901 30.7077 26.7927 30.5431 26.4996 30.25C26.2066 29.957 26.042 29.5596 26.042 29.1452V21.8535C26.042 21.4391 26.2066 21.0417 26.4996 20.7487C26.7927 20.4556 27.1901 20.291 27.6045 20.291C28.0189 20.291 28.4163 20.4556 28.7093 20.7487C29.0024 21.0417 29.167 21.4391 29.167 21.8535ZM16.667 22.8952V28.1035C16.667 28.5179 16.5024 28.9153 16.2093 29.2084C15.9163 29.5014 15.5189 29.666 15.1045 29.666C14.6901 29.666 14.2927 29.5014 13.9996 29.2084C13.7066 28.9153 13.542 28.5179 13.542 28.1035V22.8952C13.542 22.4808 13.7066 22.0834 13.9996 21.7903C14.2927 21.4973 14.6901 21.3327 15.1045 21.3327C15.5189 21.3327 15.9163 21.4973 16.2093 21.7903C16.5024 22.0834 16.667 22.4808 16.667 22.8952Z" fill="#AB813E"/>
</svg>
