<svg width="50" height="51" viewBox="0 0 50 51" fill="none" xmlns="http://www.w3.org/2000/svg">
<path d="M29.167 42.1673C26.8754 42.1673 24.9136 41.3513 23.2816 39.7194C21.6497 38.0875 20.8337 36.1257 20.8337 33.834C20.8337 31.5423 21.6497 29.5805 23.2816 27.9486C24.9136 26.3166 26.8754 25.5007 29.167 25.5007C29.9657 25.5007 30.7038 25.5965 31.3816 25.7881C32.0594 25.9798 32.7101 26.2659 33.3337 26.6465V10.9173C33.3337 10.327 33.5337 9.8326 33.9337 9.43398C34.3337 9.03537 34.8282 8.83537 35.417 8.83398H43.7504C44.3406 8.83398 44.8358 9.03398 45.2358 9.43398C45.6358 9.83398 45.8351 10.3284 45.8337 10.9173V13.0007C45.8337 13.5909 45.6337 14.0861 45.2337 14.4861C44.8337 14.8861 44.3393 15.0854 43.7504 15.084H37.5004V33.834C37.5004 36.1257 36.6844 38.0875 35.0525 39.7194C33.4205 41.3513 31.4587 42.1673 29.167 42.1673ZM14.4795 19.0944C12.8129 20.7611 11.4587 22.6625 10.417 24.7986C9.37537 26.9347 8.71565 29.2173 8.43787 31.6465C8.36843 32.2368 8.1344 32.7493 7.73579 33.184C7.33718 33.6187 6.84204 33.8354 6.25037 33.834C5.65871 33.8326 5.16426 33.6069 4.76704 33.1569C4.36982 32.7069 4.20454 32.1861 4.27121 31.5944C4.54898 28.5736 5.3219 25.7527 6.58996 23.1319C7.85801 20.5111 9.49829 18.193 11.5108 16.1777C13.5233 14.1625 15.8413 12.5215 18.465 11.2548C21.0886 9.98815 23.9094 9.21593 26.9275 8.93815C27.5177 8.86871 28.0386 9.03398 28.49 9.43398C28.9413 9.83398 29.167 10.3284 29.167 10.9173C29.167 11.5062 28.9504 12.0013 28.517 12.4027C28.0837 12.8041 27.5712 13.0382 26.9795 13.1048C24.549 13.3826 22.2747 14.034 20.1566 15.059C18.0386 16.084 16.1462 17.4291 14.4795 19.0944ZM20.365 24.9798C19.4622 25.8826 18.6983 26.9159 18.0733 28.0798C17.4483 29.2437 17.0316 30.4847 16.8233 31.8027C16.7191 32.393 16.4677 32.8791 16.0691 33.2611C15.6705 33.643 15.1754 33.834 14.5837 33.834C13.992 33.834 13.5059 33.6173 13.1254 33.184C12.7448 32.7507 12.5886 32.2381 12.6566 31.6465C12.8997 29.7715 13.4295 28.027 14.2462 26.4131C15.0629 24.7993 16.1129 23.3493 17.3962 22.0632C18.6795 20.777 20.1295 19.727 21.7462 18.9132C23.3629 18.0993 25.1073 17.5694 26.9795 17.3236C27.5698 17.2541 28.0823 17.4104 28.517 17.7923C28.9518 18.1743 29.1684 18.6604 29.167 19.2507C29.1657 19.8409 28.9747 20.3361 28.5941 20.7361C28.2136 21.1361 27.7275 21.3875 27.1358 21.4902C25.8163 21.6986 24.5837 22.1069 23.4379 22.7152C22.292 23.3236 21.2677 24.0784 20.365 24.9798Z" fill="#AB813E"/>
</svg>
