<svg width="50" height="51" viewBox="0 0 50 51" fill="none" xmlns="http://www.w3.org/2000/svg">
<path d="M22.8484 23.3485C22.5659 23.6308 22.3418 23.9661 22.1888 24.3351C22.0359 24.7041 21.9571 25.0996 21.957 25.499C21.9569 25.8985 22.0355 26.294 22.1883 26.6631C22.3411 27.0321 22.5651 27.3675 22.8475 27.65C23.1298 27.9329 23.4651 28.1573 23.8343 28.3105C24.2034 28.4636 24.5992 28.5425 24.9988 28.5425C25.3985 28.5426 25.7943 28.4638 26.1635 28.3107C26.5327 28.1577 26.8681 27.9333 27.1504 27.6505C27.4334 27.3681 27.6579 27.0327 27.811 26.6635C27.9642 26.2943 28.043 25.8985 28.043 25.4987C28.043 25.099 27.9642 24.7032 27.811 24.334C27.6579 23.9647 27.4334 23.6293 27.1504 23.347C26.868 23.0644 26.5326 22.8402 26.1635 22.6873C25.7943 22.5344 25.3987 22.4558 24.9991 22.4559C24.5996 22.4561 24.204 22.535 23.835 22.6881C23.4659 22.8413 23.1307 23.0657 22.8484 23.3485ZM38.2745 40.0825C46.2605 32.028 46.2415 18.979 38.2135 10.951C38.202 10.9395 38.1884 10.9325 38.1769 10.9215L38.18 10.9185L37.332 10.0695L37.3219 10.0795C37.0965 9.89897 36.8132 9.80659 36.5247 9.81956C36.2362 9.83253 35.9623 9.94997 35.754 10.15L35.7524 10.1485L35.7394 10.1615L35.7355 10.165L35.7324 10.169L34.346 11.555L34.345 11.556L34.344 11.557L34.2439 11.657L34.254 11.667C34.0883 11.8775 33.9987 12.1378 33.9996 12.4056C34.0005 12.6734 34.0919 12.9331 34.2589 13.1425L34.2495 13.152L34.3445 13.247V13.2475L35.0979 14L35.1115 13.9865C35.1224 13.998 35.1299 14.0115 35.1414 14.023C41.4749 20.357 41.4949 30.65 35.2024 37.01L35.194 37.0015L34.442 37.7535L34.4404 37.7545L34.4394 37.756L34.3455 37.85L34.3549 37.8595C34.1744 38.0849 34.0821 38.3683 34.095 38.6567C34.108 38.9452 34.2254 39.2192 34.4254 39.4275L34.424 39.429L34.4394 39.4445L34.4404 39.446L34.442 39.447L35.1399 40.145L35.1409 40.1465L35.1425 40.1475L35.8305 40.8355L35.8315 40.837L35.833 40.838L35.9319 40.937L35.942 40.927C36.1526 41.0924 36.4129 41.182 36.6807 41.1812C36.9486 41.1804 37.2083 41.0892 37.4179 40.9225L37.4275 40.932L38.2109 40.148L38.2135 40.146L38.2225 40.1365L38.276 40.083L38.2745 40.0825Z" fill="#AB813E"/>
<path d="M32.4611 34.2695C37.2416 29.42 37.2226 21.587 32.3996 16.7645C32.3881 16.753 32.3746 16.746 32.3631 16.7345L32.3666 16.731L31.5181 15.882L31.5081 15.892C31.2827 15.7115 30.9994 15.6191 30.7109 15.6321C30.4224 15.645 30.1484 15.7625 29.9401 15.9625L29.9386 15.961L29.9241 15.9755L29.9216 15.9775L29.9196 15.98L28.5326 17.367L28.5306 17.3685L28.5291 17.3705L28.4301 17.4695L28.4401 17.4795C28.2745 17.6899 28.1847 17.9502 28.1856 18.218C28.1864 18.4858 28.2777 18.7455 28.4446 18.955L28.4351 18.9645L28.5296 19.059L28.5306 19.06L28.5316 19.061L29.2836 19.8135L29.2971 19.8C29.3081 19.8115 29.3156 19.825 29.3271 19.8365C32.4561 22.965 32.4736 28.04 29.3866 31.195L29.3801 31.1885L28.6276 31.941L28.6266 31.9415L28.6261 31.9425L28.5316 32.037L28.5411 32.0465C28.3608 32.2719 28.2685 32.5551 28.2814 32.8435C28.2944 33.1319 28.4118 33.4057 28.6116 33.614L28.6096 33.616L30.0176 35.0235L30.1181 35.124L30.1281 35.114C30.3387 35.2793 30.5989 35.3688 30.8667 35.368C31.1344 35.3672 31.3941 35.2761 31.6036 35.1095L31.6136 35.1195L32.3996 34.3335L32.4621 34.271L32.4611 34.2695Z" fill="#AB813E"/>
<path d="M27.153 23.3509C26.8706 23.0682 26.5353 22.8439 26.1661 22.6909C25.797 22.5378 25.4013 22.459 25.0017 22.459C24.602 22.4589 24.2063 22.5376 23.8371 22.6906C23.468 22.8436 23.1325 23.0678 22.85 23.3504C22.5673 23.6328 22.3429 23.9681 22.1899 24.3372C22.0368 24.7064 21.958 25.102 21.958 25.5017C21.958 25.9013 22.0368 26.297 22.1899 26.6661C22.3429 27.0352 22.5673 27.3706 22.85 27.6529C23.1324 27.9357 23.4678 28.16 23.8369 28.313C24.2061 28.466 24.6018 28.5447 25.0014 28.5447C25.401 28.5447 25.7967 28.4658 26.1658 28.3127C26.5349 28.1596 26.8702 27.9352 27.1525 27.6524C27.7229 27.082 28.0434 26.3084 28.0435 25.5018C28.0436 24.6951 27.7233 23.9214 27.153 23.3509Z" fill="#AB813E"/>
<path d="M21.5546 32.0455L21.5641 32.0359L21.4701 31.9419L21.4686 31.9399L21.4671 31.9384L20.7156 31.1865L20.7021 31.2C20.6911 31.1884 20.6836 31.175 20.6726 31.164C17.5436 28.035 17.5261 22.96 20.6131 19.805L20.6196 19.8115L21.4681 18.9635L21.4581 18.9534C21.6385 18.7281 21.7308 18.4448 21.7178 18.1564C21.7048 17.8681 21.5875 17.5942 21.3876 17.386L21.3896 17.3839L19.8806 15.8755L19.8706 15.8855C19.6601 15.7198 19.3999 15.63 19.1321 15.6309C18.8642 15.6317 18.6045 15.723 18.3951 15.89L18.3856 15.8805L18.2901 15.976L17.5996 16.6665L17.5371 16.729L17.5386 16.7305C12.7576 21.58 12.7771 29.413 17.6001 34.236C17.6111 34.247 17.6246 34.2544 17.6361 34.2654L17.6331 34.2685L18.4816 35.1175L18.4916 35.1074C18.717 35.2878 19.0002 35.3801 19.2886 35.3671C19.577 35.3542 19.8508 35.2368 20.0591 35.0369L20.0606 35.0384L20.0751 35.0239L20.0776 35.0219L20.0796 35.0195L21.4671 33.632L21.4686 33.631L21.4696 33.63L21.5691 33.5304L21.5591 33.5205C21.7248 33.3101 21.8146 33.0499 21.8138 32.7822C21.8129 32.5144 21.7216 32.2548 21.5546 32.0455Z" fill="#AB813E"/>
<path d="M15.7416 37.8584L15.7511 37.8489L15.6561 37.7539L15.6556 37.7534L15.6551 37.7529L14.9021 37.0005L14.8886 37.014C14.8776 37.0025 14.8701 36.989 14.8591 36.9775C8.52508 30.643 8.50608 20.351 14.7986 13.991L14.8066 13.999L15.5586 13.247L15.5601 13.246L15.5611 13.2445L15.6551 13.1505L15.6456 13.141C15.8261 12.9155 15.9185 12.6322 15.9055 12.3437C15.8925 12.0552 15.7751 11.7813 15.5751 11.573L15.5771 11.571L14.8601 10.854L14.8596 10.8535L14.8591 10.853L14.0686 10.0625L14.0586 10.073C13.8481 9.90726 13.5879 9.81755 13.32 9.81836C13.0522 9.81918 12.7925 9.91048 12.5831 10.0775L12.5731 10.0675L11.7251 10.916L11.7266 10.9175C3.73958 18.9725 3.75858 32.0219 11.7871 40.0499C11.7986 40.0614 11.8121 40.0684 11.8236 40.0794L11.8201 40.083L12.6686 40.9319L12.6786 40.922C12.9041 41.1024 13.1875 41.1947 13.4759 41.1816C13.7644 41.1686 14.0383 41.051 14.2466 40.8509L14.2481 40.8525L14.2646 40.8359L15.6536 39.4464L15.6561 39.4445L15.6581 39.442L15.7561 39.3439L15.7461 39.334C15.9118 39.1235 16.0015 38.8633 16.0007 38.5954C15.9998 38.3276 15.9085 38.0679 15.7416 37.8584Z" fill="#AB813E"/>
</svg>
