<svg width="50" height="51" viewBox="0 0 50 51" fill="none" xmlns="http://www.w3.org/2000/svg">
<path d="M7.29201 25.4994C7.29207 22.6193 7.99461 19.7826 9.33872 17.2354C10.6828 14.6882 12.6279 12.5073 15.0054 10.8817C17.3829 9.25613 20.121 8.23498 22.9823 7.90677C25.8437 7.57856 28.7419 7.9532 31.4257 8.99822C34.1095 10.0432 36.4979 11.7271 38.3839 13.9038C40.2698 16.0805 41.5964 18.6844 42.2486 21.4896C42.9009 24.2949 42.859 27.2169 42.1267 30.0023C41.3944 32.7878 39.9937 35.3526 38.0462 37.4743L40.1128 39.8389C43.7913 35.9716 45.8399 30.8367 45.8337 25.4994C45.8337 13.9931 36.5066 4.66602 25.0003 4.66602C13.4941 4.66602 4.16701 13.9931 4.16701 25.4994C4.16075 30.8367 6.20935 35.9716 9.88784 39.8389L11.9566 37.4764C8.95128 34.2125 7.28583 29.9362 7.29201 25.4994ZM40.1045 25.7598C40.1095 29.3782 38.7879 32.8729 36.3899 35.5827L34.3108 33.2077C35.7114 31.5057 36.6036 29.4431 36.8849 27.2569C37.1663 25.0708 36.8253 22.8495 35.9012 20.8484C34.9771 18.8472 33.5074 17.1472 31.6608 15.9437C29.8141 14.7401 27.6655 14.0817 25.4616 14.0442C23.2577 14.0067 21.0879 14.5914 19.2013 15.7314C17.3148 16.8714 15.788 18.5203 14.7963 20.4889C13.8046 22.4574 13.3882 24.6657 13.5949 26.8602C13.8016 29.0547 14.6231 31.1465 15.9649 32.8952L13.8733 35.2827C12.3427 33.453 11.2757 31.2815 10.7625 28.952C10.2493 26.6224 10.3051 24.2035 10.9252 21.9001C11.5452 19.5967 12.7113 17.4767 14.3245 15.7196C15.9378 13.9624 17.9508 12.62 20.193 11.8059C22.4351 10.9919 24.8405 10.7302 27.2053 11.043C29.5701 11.3558 31.8247 12.2339 33.7781 13.603C35.7314 14.9721 37.3261 16.7917 38.427 18.9079C39.5279 21.0241 40.1047 23.3744 40.1045 25.7598ZM33.8524 25.4994C33.8554 27.381 33.256 29.2142 32.142 30.7306L30.0045 28.2889C30.4898 27.4169 30.7388 26.4331 30.727 25.4352C30.7152 24.4373 30.4429 23.4597 29.9371 22.5994C29.4313 21.7391 28.7095 21.0258 27.8432 20.5302C26.977 20.0346 25.9963 19.7739 24.9983 19.7739C24.0002 19.7739 23.0196 20.0346 22.1533 20.5302C21.287 21.0258 20.5653 21.7391 20.0594 22.5994C19.5536 23.4597 19.2813 24.4373 19.2695 25.4352C19.2577 26.4331 19.5067 27.4169 19.992 28.2889L17.8566 30.7285C17.0302 29.6 16.483 28.2917 16.2597 26.9109C16.0364 25.5301 16.1435 24.116 16.5721 22.7845C17.0006 21.4531 17.7386 20.2421 18.7254 19.2508C19.7123 18.2595 20.9199 17.5161 22.2494 17.0816C23.579 16.647 24.9925 16.5336 26.3743 16.7506C27.7561 16.9677 29.0669 17.509 30.1991 18.3303C31.3314 19.1516 32.2529 20.2295 32.8883 21.4756C33.5237 22.7217 33.8527 24.1006 33.8524 25.4994ZM25.0003 26.541C25.2229 26.5411 25.4428 26.5887 25.6455 26.6807C25.8481 26.7727 26.0288 26.9069 26.1753 27.0744L40.7587 43.741C40.9564 43.9669 41.0848 44.2449 41.1287 44.5418C41.1726 44.8387 41.13 45.142 41.0061 45.4154C40.8821 45.6887 40.6821 45.9206 40.4298 46.0833C40.1776 46.246 39.8838 46.3326 39.5837 46.3327H10.417C10.1169 46.3326 9.82309 46.246 9.57085 46.0833C9.3186 45.9206 9.11855 45.6887 8.99461 45.4154C8.87067 45.142 8.82809 44.8387 8.87197 44.5418C8.91584 44.2449 9.04431 43.9669 9.24201 43.741L23.8253 27.0744C23.9719 26.9069 24.1526 26.7727 24.3552 26.6807C24.5579 26.5887 24.7778 26.5411 25.0003 26.541Z" fill="#AB813E"/>
</svg>
