<svg width="55" height="73" viewBox="0 0 55 73" fill="none" xmlns="http://www.w3.org/2000/svg">
<path d="M34.749 58.4245L36.6062 70.6201H38.8283L42.2841 52.4816C41.9446 52.4556 41.6058 52.4297 41.2608 52.4297H40.1475C37.9729 53.5393 35.496 54.1742 32.8643 54.1742C30.2318 54.1742 27.7558 53.5393 25.5795 52.4297H24.4678C24.1214 52.4297 23.7842 52.4556 23.4453 52.4816L26.8974 70.6201H29.1223L30.9765 58.4245H31.0413L29.2199 55.0772H36.5069L34.6848 58.4245H34.749Z" fill="#293A42"/>
<path d="M38.8468 70.6229H36.6248H29.1409H26.9159L23.4638 52.4844C16.4118 53.0102 10.8477 58.8837 10.8477 66.0727V72.6903H54.9164V66.0727C54.9164 58.8836 49.3539 53.0102 42.3026 52.4844L38.8468 70.6229Z" fill="#AB813E"/>
<path d="M29.124 70.6231H36.6079L34.7507 58.4274H34.6867L36.5087 55.0801H29.2217L31.0432 58.4274H30.9782L29.124 70.6231Z" fill="#AB813E"/>
<path d="M26.4072 17.9923C26.611 17.8076 26.8078 17.639 26.9818 17.51C27.7639 16.9224 30.214 16.0494 30.7398 16.0096H30.7436C31.1083 16.0096 31.5173 16.25 31.9996 16.6591C32.0354 15.8096 32.0018 14.9564 31.9019 14.1031L29.2045 13.4583C29.0634 12.7501 28.8635 12.0457 28.6093 11.355L30.5894 9.40435C30.3468 8.87856 30.0812 8.36258 29.7821 7.85888C29.4844 7.35447 29.1609 6.87203 28.813 6.41039L26.153 7.20562C25.6708 6.64852 25.1488 6.1364 24.5934 5.67394L25.329 2.99744C24.3775 2.31672 23.3618 1.74735 22.3004 1.29097L20.389 3.31256C19.6991 3.07444 18.9926 2.89205 18.2769 2.76691L17.5725 0.0759259C16.4219 -0.0369433 15.2582 -0.0247908 14.1007 0.117873L13.4513 2.81423C12.7433 2.95316 12.0428 3.15167 11.3515 3.40802L9.39882 1.43363C8.87908 1.66953 8.35725 1.93359 7.85363 2.23353C7.34932 2.53112 6.86778 2.85618 6.40692 3.19969L7.19967 5.86462C6.64337 6.34858 6.12912 6.86818 5.66896 7.42388L2.99377 6.68964C2.31317 7.64062 1.74308 8.6541 1.28678 9.71573L3.30731 11.629C3.07005 12.3174 2.89143 13.0256 2.7641 13.74L0.0781516 14.4467C-0.0363328 15.5975 -0.0255845 16.7621 0.114016 17.9229L2.81293 18.5656C2.95183 19.2761 3.15171 19.9767 3.40124 20.6712L1.42953 22.6218C1.66446 23.1477 1.93081 23.6613 2.22999 24.1635C2.53139 24.6694 2.85417 25.1533 3.19517 25.6135L5.85891 24.8198C6.34337 25.3777 6.86766 25.8898 7.42011 26.3499L6.68682 29.0288C7.63681 29.7071 8.6486 30.2788 9.70991 30.7314L11.6237 28.7135C12.315 28.9532 13.0155 29.1317 13.7365 29.2545L14.4416 31.9455C14.9559 31.9951 15.4733 32.0172 15.9936 32.0172L15.989 31.9317C15.9894 25.3341 20.3859 19.7697 26.4072 17.9923ZM19.101 21.0543C16.1908 22.776 12.4259 21.7763 10.7549 18.8175C9.18457 16.0394 10.1246 12.3831 12.8395 10.7041C15.7299 8.91443 19.507 9.85851 21.2291 12.7654C22.9292 15.641 21.9746 19.3516 19.101 21.0543Z" fill="#AB813E"/>
<path d="M13.7637 38.2318V39.4223C13.7637 41.4524 15.4805 43.1032 17.5911 43.1032H17.817C18.9676 47.1435 21.8268 50.5045 25.5962 52.4293C27.7725 53.5389 30.2485 54.1738 32.881 54.1738C35.5128 54.1738 37.9896 53.5389 40.1642 52.4293C43.9337 50.5045 46.7928 47.1435 47.9435 43.1032H48.1694C50.2815 43.1032 51.996 41.4524 51.996 39.4223V38.2318C51.996 36.4719 50.7042 35.0036 48.9865 34.6403C49.0461 34.113 49.0881 33.575 49.0881 33.0293L49.0805 32.8767C49.0835 32.4874 49.0697 32.0829 49.0178 31.6487V31.6464C48.7821 29.134 47.9092 26.8109 46.5578 24.8366C45.8604 23.8162 45.0325 22.8997 44.1085 22.0899C41.6347 19.9255 38.4269 18.59 34.9039 18.5045L34.7247 18.364C34.5751 18.1993 34.4073 18.1695 34.2959 18.1695C34.0311 18.1695 33.8465 18.3443 33.6969 18.4869H33.6473C33.3649 18.2053 33.1071 17.961 32.866 17.7588C32.3844 17.3475 31.9763 17.1094 31.61 17.1094H31.6055C31.082 17.1491 28.6319 18.0206 27.8467 18.6075C27.6734 18.7365 27.4781 18.9051 27.2743 19.0898C21.2539 20.8696 16.8573 26.4316 16.8573 33.0293L16.8604 33.1171L16.8673 33.3292C16.8604 33.7734 16.874 34.2099 16.9168 34.6403C15.1294 34.9501 13.7637 36.426 13.7637 38.2318ZM48.5798 36.7878C49.2474 36.9641 49.7441 37.5358 49.7441 38.2317V39.4222C49.7441 40.1824 49.1551 40.8097 48.3936 40.9165C48.4668 40.3311 48.5126 39.742 48.5126 39.1391C48.5126 38.5576 48.4592 37.9859 48.3853 37.4242C48.4537 37.2121 48.5217 37.0016 48.5798 36.7878ZM19.6642 37.2182C19.71 36.9267 19.7748 36.6405 19.8405 36.3566C21.6763 35.0531 24.028 33.0231 24.9253 31.4243C24.9253 31.4243 39.7802 34.9043 45.191 35.305C45.3459 35.315 45.4916 35.3211 45.6336 35.3233C45.8319 35.9383 45.9937 36.5695 46.0959 37.2198C46.1928 37.8472 46.2599 38.4859 46.2599 39.1392C46.2599 39.6055 46.231 40.0673 46.1806 40.5198C46.0936 41.2975 45.9311 42.0515 45.7068 42.7803C44.0685 48.1081 38.9417 52.0088 32.8808 52.0088C26.8177 52.0088 21.6916 48.1081 20.0525 42.7803C19.8289 42.0515 19.6664 41.2974 19.5787 40.5198C19.529 40.0673 19.4993 39.6055 19.4993 39.1392C19.4995 38.4859 19.5673 37.8472 19.6642 37.2182ZM16.0146 38.2318C16.0146 37.4824 16.5892 36.8711 17.3347 36.752C17.3377 37.0413 17.3468 37.3251 17.3545 37.6151C17.2935 38.1151 17.2469 38.621 17.2469 39.1392C17.2469 39.7421 17.2949 40.3313 17.3667 40.9166C16.6036 40.8098 16.0146 40.1825 16.0146 39.4223V38.2318Z" fill="#AB813E"/>
</svg>
