<svg width="74" height="66" viewBox="0 0 74 66" fill="none" xmlns="http://www.w3.org/2000/svg">
<path d="M57.035 35.4104C55.5096 39.2949 49.4387 44.6557 41.0179 40.828C41.0179 40.828 40.1454 41.1696 38.2785 44.6537C38.259 44.6902 38.2393 44.727 38.2193 44.7644C37.7481 45.6509 36.4798 45.6509 36.0087 44.7644C35.9886 44.727 35.9689 44.6902 35.9495 44.6537C34.0824 41.1696 33.2101 40.828 33.2101 40.828C24.7893 44.6557 18.7183 39.2949 17.1929 35.4104C14.9994 29.8243 17.8372 22.8235 22.0658 19.8809C24.0806 22.0137 26.6495 23.5207 29.0804 25.1633C31.5115 26.806 33.9035 28.6886 35.2941 31.2721C36.4121 33.3493 36.7333 35.9822 35.8438 38.1089C28.6146 29.6044 23.2288 27.5783 23.2288 27.5783C28.495 31.2891 32.3983 35.8158 35.0229 39.496C35.8444 40.6479 36.5407 41.7169 37.114 42.6518C37.6873 41.7169 38.3836 40.6479 39.2051 39.496C41.8296 35.8158 45.7329 31.2891 50.9992 27.5783C50.9992 27.5783 45.6134 29.6044 38.3842 38.1089C37.4947 35.9822 37.8159 33.3493 38.9339 31.2721C40.3245 28.6887 42.7165 26.806 45.1476 25.1633C47.5785 23.5207 50.1474 22.0137 52.1622 19.8809C56.3908 22.8235 59.2286 29.8243 57.035 35.4104Z" fill="#AB813E"/>
<path d="M72.2463 32.3659H69.7664C69.7294 28.0606 68.8672 23.8827 67.2011 19.9437C65.5563 16.0548 63.202 12.5628 60.2037 9.56449C57.2055 6.56622 53.7135 4.21195 49.8247 2.56711C45.7975 0.863701 41.5208 0 37.1134 0C29.7934 0 22.7435 2.43946 17.0201 6.91227C16.0263 7.68894 15.9029 9.1474 16.7481 10.0836C17.5116 10.9292 18.8007 11.0468 19.6978 10.3446C21.8534 8.65759 24.2285 7.30031 26.7813 6.29873C30.0702 5.00833 33.5464 4.35402 37.1134 4.35402C40.9349 4.35402 44.641 5.10199 48.1287 6.57716C51.4984 8.00249 54.5253 10.0434 57.125 12.6432C59.7248 15.2431 61.7657 18.2699 63.191 21.6398C64.6289 25.0394 65.3756 28.6465 65.4124 32.3658H62.936C61.6604 32.3658 60.9851 33.8744 61.8348 34.8258L66.49 40.0377C67.077 40.6949 68.1052 40.6949 68.6922 40.0377L73.3474 34.8258C74.1972 33.8745 73.5219 32.3659 72.2463 32.3659Z" fill="#AB813E"/>
<path d="M1.9793 32.9441H4.45922C4.49623 37.2493 5.35843 41.4272 7.02453 45.3662C8.66935 49.2551 11.0236 52.7471 14.0219 55.7454C17.0201 58.7437 20.5121 61.098 24.4009 62.7428C28.4281 64.4462 32.7048 65.3099 37.1122 65.3099C44.4322 65.3099 51.4821 62.8704 57.2055 58.3976C58.1993 57.6209 58.3227 56.1625 57.4775 55.2262C56.7141 54.3807 55.4249 54.2631 54.5278 54.9652C52.3722 56.6523 49.9971 58.0096 47.4443 59.0111C44.1554 60.3015 40.6792 60.9558 37.1122 60.9558C33.2907 60.9558 29.5846 60.2079 26.0969 58.7327C22.7272 57.3074 19.7004 55.2665 17.1006 52.6667C14.5008 50.0669 12.4599 47.04 11.0346 43.6701C9.5967 40.2705 8.85003 36.6633 8.81322 32.9441H11.2896C12.5652 32.9441 13.2405 31.4354 12.3908 30.484L7.7356 25.2722C7.14861 24.615 6.12035 24.615 5.53331 25.2722L0.878193 30.484C0.0284217 31.4354 0.703699 32.9441 1.9793 32.9441Z" fill="#AB813E"/>
</svg>
