<svg width="44" height="68" viewBox="0 0 44 68" fill="none" xmlns="http://www.w3.org/2000/svg">
<path d="M29.6303 55.6543V57.5723H27.5723C27.4883 57.5443 27.3903 57.5303 27.3063 57.5303H16.7083C16.6103 57.5303 16.5263 57.5443 16.4423 57.5723H14.3843V55.6543H29.6303Z" fill="#AB813E"/>
<path d="M38.828 30.4676C38.716 21.4376 31.282 13.9896 22.252 13.8496C22.168 13.8496 22.084 13.8496 22 13.8496C17.548 13.8496 13.362 15.5576 10.198 18.6936C6.96404 21.8856 5.18604 26.1416 5.18604 30.6776C5.18604 34.7656 6.67004 38.7136 9.37204 41.7796C12.424 45.2516 14.188 49.5916 14.37 54.0716H29.658C29.84 49.5636 31.59 45.2376 34.614 41.8076C37.372 38.6856 38.87 34.6536 38.828 30.4676ZM33.676 31.6996C33.676 32.1336 33.326 32.4836 32.892 32.4836H30.484C30.456 32.5536 30.428 32.6236 30.4 32.6936L32.108 34.4016C32.262 34.5416 32.332 34.7516 32.332 34.9616C32.332 35.1716 32.248 35.3676 32.108 35.5216L28.44 39.1896C28.132 39.4976 27.628 39.4976 27.32 39.1896L25.612 37.4816C25.542 37.5096 25.472 37.5376 25.402 37.5656V39.9736C25.402 40.4076 25.052 40.7576 24.618 40.7576H19.424C18.99 40.7576 18.64 40.4076 18.64 39.9736V37.5796C18.57 37.5516 18.5 37.5236 18.43 37.4956L16.722 39.2036C16.414 39.5116 15.91 39.5116 15.602 39.2036L11.934 35.5356C11.78 35.3956 11.71 35.1856 11.71 34.9756C11.71 34.7656 11.794 34.5696 11.934 34.4156L13.642 32.7076C13.614 32.6376 13.586 32.5676 13.558 32.4976H11.15C10.716 32.4976 10.366 32.1476 10.366 31.7136V26.5196C10.366 26.0856 10.716 25.7356 11.15 25.7356H13.558C13.586 25.6656 13.614 25.5956 13.642 25.5256L11.934 23.8176C11.626 23.5096 11.626 23.0056 11.934 22.6976L15.602 19.0296C15.91 18.7216 16.414 18.7216 16.722 19.0296L18.43 20.7376C18.5 20.7096 18.57 20.6816 18.64 20.6536V18.2456C18.64 17.8116 18.99 17.4616 19.424 17.4616H24.618C25.052 17.4616 25.402 17.8116 25.402 18.2456V20.6396C25.472 20.6676 25.542 20.6956 25.612 20.7236L27.32 19.0156C27.628 18.7076 28.132 18.7076 28.44 19.0156L32.108 22.6836C32.262 22.8376 32.332 23.0336 32.332 23.2436C32.332 23.4536 32.248 23.6496 32.108 23.8036L30.4 25.5116C30.428 25.5816 30.456 25.6516 30.484 25.7216H32.892C33.326 25.7216 33.676 26.0716 33.676 26.5056V31.6996Z" fill="#AB813E"/>
<path d="M29.1679 31.4476C29.2799 31.1256 29.5739 30.9016 29.9099 30.9016H32.0799V27.2756H29.9099C29.5739 27.2756 29.2659 27.0516 29.1679 26.7296C29.0419 26.3656 28.9019 26.0156 28.7339 25.6796C28.5799 25.3716 28.6359 25.0076 28.8739 24.7696L30.4139 23.2296L27.8519 20.6676L26.3119 22.2076C26.0739 22.4456 25.6959 22.5016 25.4019 22.3616C25.0519 22.1936 24.7019 22.0396 24.3519 21.9276C24.0299 21.8156 23.8059 21.5216 23.8059 21.1856V19.0156H20.1799V21.1856C20.1799 21.5216 19.9559 21.8296 19.6339 21.9276C19.2839 22.0396 18.9199 22.1936 18.5839 22.3616C18.2759 22.5156 17.9119 22.4596 17.6739 22.2076L16.1339 20.6676L13.5719 23.2296L15.1119 24.7696C15.3499 25.0076 15.4059 25.3856 15.2659 25.6796C15.0979 26.0296 14.9439 26.3796 14.8319 26.7296C14.7199 27.0516 14.4259 27.2756 14.0899 27.2756H11.9199V30.9016H14.0899C14.4259 30.9016 14.7339 31.1256 14.8319 31.4476C14.9439 31.7976 15.0979 32.1616 15.2659 32.4976C15.4199 32.8056 15.3639 33.1696 15.1119 33.4076L13.5719 34.9476L16.1339 37.5096L17.6739 35.9696C17.9119 35.7316 18.2759 35.6756 18.5839 35.8296C18.9339 35.9976 19.2839 36.1516 19.6339 36.2636C19.9559 36.3756 20.1799 36.6696 20.1799 37.0196V39.1896H23.8059V37.0196C23.8059 36.6836 24.0299 36.3756 24.3519 36.2636C24.7019 36.1516 25.0659 35.9976 25.4019 35.8296C25.7099 35.6756 26.0739 35.7316 26.3119 35.9696L27.8519 37.5096L30.4139 34.9476L28.8739 33.4076C28.6359 33.1696 28.5799 32.7916 28.7339 32.4976C28.9019 32.1756 29.0559 31.8256 29.1679 31.4476ZM21.9999 32.9316C19.8859 32.9316 18.1779 31.2236 18.1779 29.1096C18.1779 26.9956 19.8859 25.2876 21.9999 25.2876C24.1139 25.2876 25.8219 26.9956 25.8219 29.1096C25.8219 31.2236 24.1139 32.9316 21.9999 32.9316Z" fill="#AB813E"/>
<path d="M26.5082 59.1543H17.4922V63.3963H26.5082V59.1543Z" fill="#AB813E"/>
<path d="M24.3663 64.9648C24.3243 66.2388 23.2883 67.2608 22.0003 67.2608C20.7123 67.2608 19.6763 66.2388 19.6343 64.9648H24.3663Z" fill="#AB813E"/>
<path d="M7.25808 16.7214C7.11808 16.9734 6.85208 17.1134 6.57208 17.1134C6.43208 17.1134 6.30608 17.0854 6.18008 17.0014L0.482079 13.7114C0.104079 13.4874 -0.021922 13.0114 0.188078 12.6334C0.398078 12.2554 0.888079 12.1294 1.26608 12.3394L6.96408 15.6294C7.34208 15.8674 7.46808 16.3434 7.25808 16.7214Z" fill="#AB813E"/>
<path d="M13.7681 9.41351C13.9921 9.79151 13.8521 10.2675 13.4741 10.4915C13.3481 10.5615 13.2081 10.6035 13.0821 10.6035C12.8161 10.6035 12.5501 10.4635 12.3961 10.2115L9.12008 4.51351C8.89608 4.13551 9.03608 3.65951 9.41408 3.43551C9.79208 3.21151 10.2681 3.35151 10.4921 3.72951L13.7681 9.41351Z" fill="#AB813E"/>
<path d="M34.8799 4.51348L31.5899 10.2115C31.4499 10.4635 31.1839 10.6035 30.9039 10.6035C30.7639 10.6035 30.6379 10.5755 30.5119 10.4915C30.1339 10.2675 30.0079 9.79148 30.2179 9.41348L33.5079 3.71548C33.7319 3.33748 34.2079 3.21148 34.5859 3.42148C34.9639 3.65948 35.0899 4.13548 34.8799 4.51348Z" fill="#AB813E"/>
<path d="M43.5182 13.7251L37.8202 17.0152C37.6942 17.0852 37.5542 17.1271 37.4282 17.1271C37.1622 17.1271 36.8961 16.9872 36.7421 16.7352C36.5181 16.3572 36.6582 15.8811 37.0362 15.6571L42.7342 12.3671C43.1122 12.1431 43.5881 12.2831 43.8121 12.6611C44.0221 13.0251 43.8962 13.5011 43.5182 13.7251Z" fill="#AB813E"/>
<path d="M22.7843 0.844547V7.42455C22.7843 7.85855 22.4343 8.20855 22.0003 8.20855C21.5663 8.20855 21.2163 7.85855 21.2163 7.42455V0.844547C21.2163 0.410547 21.5663 0.0605469 22.0003 0.0605469C22.4343 0.0605469 22.7843 0.410547 22.7843 0.844547Z" fill="#AB813E"/>
</svg>
