<svg width="33" height="32" viewBox="0 0 33 32" fill="none" xmlns="http://www.w3.org/2000/svg">
<rect x="0.669922" width="31.67" height="31.67" rx="15.835" fill="#AB813E"/>
<path d="M13.9827 11.0299C14.7974 11.0299 15.4603 11.6928 15.4603 12.5075C15.4603 12.6558 15.5807 12.7761 15.729 12.7761C15.8773 12.7761 15.9976 12.6558 15.9976 12.5075C15.9976 11.3964 15.0937 10.4925 13.9827 10.4925C13.168 10.4925 12.5051 9.82963 12.5051 9.01493C12.5051 8.20022 13.168 7.53732 13.9827 7.53732H15.3047C14.9058 7.90524 14.6543 8.43047 14.6543 9.01493C14.6543 10.126 15.5582 11.0299 16.6692 11.0299C16.8175 11.0299 16.9379 10.9095 16.9379 10.7612C16.9379 10.6129 16.8175 10.4925 16.6692 10.4925C15.8546 10.4925 15.1916 9.82963 15.1916 9.01493C15.1916 8.20022 15.8546 7.53732 16.6692 7.53732H17.9902C17.5914 7.90497 17.3409 8.43073 17.3409 9.01493C17.3409 10.126 18.2448 11.0299 19.3558 11.0299C19.5041 11.0299 19.6245 10.9095 19.6245 10.7612C19.6245 10.6129 19.5041 10.4925 19.3558 10.4925C18.5411 10.4925 17.8782 9.82963 17.8782 9.01493C17.8782 8.20022 18.5411 7.53732 19.3558 7.53732H20.678C20.2789 7.90524 20.0274 8.4306 20.0274 9.01493C20.0274 10.126 20.9313 11.0299 22.0424 11.0299C22.8571 11.0299 23.52 11.6928 23.52 12.5075C23.52 13.3222 22.8571 13.9851 22.0424 13.9851C20.9313 13.9851 20.0274 14.889 20.0274 16C20.0274 17.111 20.9313 18.0149 22.0424 18.0149C22.8571 18.0149 23.52 18.6778 23.52 19.4925C23.52 20.3072 22.8571 20.9701 22.0424 20.9701C20.9313 20.9701 20.0274 21.874 20.0274 22.9851C20.0274 23.5693 20.2781 24.0949 20.6768 24.4627H19.3558C18.5411 24.4627 17.8782 23.7998 17.8782 22.9851C17.8782 22.1704 18.5411 21.5075 19.3558 21.5075C19.5041 21.5075 19.6245 21.3871 19.6245 21.2388C19.6245 21.0905 19.5041 20.9701 19.3558 20.9701C18.2448 20.9701 17.3409 21.874 17.3409 22.9851C17.3409 23.5694 17.5919 24.095 17.991 24.4627H16.6692C15.8546 24.4627 15.1916 23.7998 15.1916 22.9851C15.1916 22.1704 15.8546 21.5075 16.6692 21.5075C16.8175 21.5075 16.9379 21.3871 16.9379 21.2388C16.9379 21.0905 16.8175 20.9701 16.6692 20.9701C15.5582 20.9701 14.6543 21.874 14.6543 22.9851C14.6543 23.5687 14.9043 24.0945 15.3021 24.4627H13.9827C13.168 24.4627 12.5051 23.7998 12.5051 22.9851C12.5051 22.1704 13.168 21.5075 13.9827 21.5075C15.0937 21.5075 15.9976 20.6036 15.9976 19.4925C15.9976 19.3442 15.8773 19.2239 15.729 19.2239C15.5807 19.2239 15.4603 19.3442 15.4603 19.4925C15.4603 20.3072 14.7974 20.9701 13.9827 20.9701C12.8717 20.9701 11.9678 21.874 11.9678 22.9851C11.9678 24.0961 12.8717 25 13.9827 25H24.5946C25.1871 25 25.6692 24.5179 25.6692 23.9254V8.07463C25.6692 7.48211 25.1871 7 24.5946 7H13.9827C12.8717 7 11.9678 7.90389 11.9678 9.01493C11.9678 10.126 12.8717 11.0299 13.9827 11.0299ZM25.1319 8.07463V23.9254C25.1319 24.2217 24.8909 24.4627 24.5946 24.4627H22.0424C21.2277 24.4627 20.5648 23.7998 20.5648 22.9851C20.5648 22.1704 21.2277 21.5075 22.0424 21.5075C23.1534 21.5075 24.0573 20.6036 24.0573 19.4925C24.0573 18.3815 23.1534 17.4776 22.0424 17.4776C21.2277 17.4776 20.5648 16.8147 20.5648 16C20.5648 15.1853 21.2277 14.5224 22.0424 14.5224C23.1534 14.5224 24.0573 13.6185 24.0573 12.5075C24.0573 11.3964 23.1534 10.4925 22.0424 10.4925C21.2277 10.4925 20.5648 9.82964 20.5648 9.01494C20.5648 8.20024 21.2277 7.53733 22.0424 7.53733H24.5946C24.8909 7.53732 25.1319 7.7783 25.1319 8.07463Z" fill="white"/>
<path d="M17.4935 19.2767C17.3982 19.3903 17.4129 19.5599 17.5267 19.6552C17.5771 19.6974 17.6383 19.7181 17.6993 19.7181C17.7759 19.7181 17.8522 19.6855 17.9052 19.6221C18.7547 18.6092 19.2227 17.3238 19.2227 16.0026C19.2227 14.6813 18.7549 13.3958 17.9052 12.3831C17.8099 12.2695 17.6404 12.2546 17.5267 12.3499C17.4131 12.4453 17.3982 12.6148 17.4935 12.7285C18.262 13.6446 18.6853 14.8075 18.6853 16.0027C18.6853 17.198 18.262 18.3605 17.4935 19.2767Z" fill="white"/>
<path d="M16.5765 13.2983C16.4602 13.3905 16.4405 13.5595 16.5327 13.6758C17.0615 14.3434 17.3411 15.1474 17.3411 16.0007C17.3411 16.8541 17.0615 17.6581 16.5327 18.3257C16.4405 18.442 16.4602 18.611 16.5765 18.7032C16.6259 18.7424 16.6848 18.7612 16.7432 18.7612C16.8224 18.7612 16.9009 18.7263 16.9539 18.6594C17.5587 17.8958 17.8784 16.9765 17.8784 16.0007C17.8784 15.025 17.5587 14.1056 16.9539 13.3421C16.8618 13.2258 16.6928 13.2062 16.5765 13.2983Z" fill="white"/>
<path d="M15.6299 17.7513C15.6769 17.7843 15.7308 17.8001 15.7841 17.8001C15.8686 17.8001 15.9519 17.7604 16.0041 17.6858C16.3515 17.1915 16.5353 16.6081 16.5353 15.9987C16.5353 15.3892 16.3516 14.8058 16.0041 14.3115C15.9188 14.1901 15.7512 14.1608 15.6298 14.2462C15.5085 14.3315 15.4792 14.499 15.5645 14.6205C15.848 15.0238 15.998 15.5004 15.998 15.9987C15.998 16.4969 15.848 16.9735 15.5645 17.3769C15.4793 17.4984 15.5086 17.666 15.6299 17.7513Z" fill="white"/>
<path d="M8.74454 19.2237H10.8194L12.6439 20.3185C12.7714 20.3949 12.9122 20.4333 13.053 20.4333C13.1873 20.4333 13.3219 20.3984 13.4452 20.3286C13.6979 20.1855 13.8489 19.9266 13.8489 19.6361V17.5875C14.61 17.4589 15.1921 16.7969 15.1921 15.9998C15.1921 15.2027 14.61 14.5406 13.8489 14.4122V12.3636C13.8489 12.073 13.6979 11.8143 13.4452 11.6711C13.1924 11.528 12.8929 11.5318 12.6438 11.6812L10.8194 12.7759H8.74454C8.15202 12.7759 7.66992 13.258 7.66992 13.8506V18.1491C7.66992 18.7416 8.15202 19.2237 8.74454 19.2237ZM14.655 15.9998C14.655 16.4995 14.3118 16.9193 13.849 17.0391V14.9605C14.3118 15.0803 14.655 15.5001 14.655 15.9998ZM12.9204 12.1419C13.037 12.0719 13.1412 12.1164 13.1807 12.1387C13.2201 12.161 13.3118 12.2276 13.3118 12.3636V19.6362C13.3118 19.7722 13.2201 19.8388 13.1807 19.8611C13.1414 19.8835 13.0371 19.9279 12.9204 19.8579L11.1624 18.8031V13.1967L12.9204 12.1419ZM8.20723 13.8506C8.20723 13.5542 8.44821 13.3133 8.74454 13.3133H10.6251V18.6864H8.74454C8.44821 18.6864 8.20723 18.4454 8.20723 18.1491C8.20723 18.1491 8.20723 13.8506 8.20723 13.8506Z" fill="white"/>
</svg>
