<svg width="32" height="32" viewBox="0 0 32 32" fill="none" xmlns="http://www.w3.org/2000/svg">
<rect width="31.67" height="31.67" rx="15.835" fill="#AB813E"/>
<path fill-rule="evenodd" clip-rule="evenodd" d="M21.381 6C21.8807 6 22.2857 6.40702 22.2857 6.90909V8.72728H24.0952C24.5949 8.72728 25 9.13429 25 9.63637C25 10.1384 24.5949 10.5455 24.0952 10.5455H22.2857V12.3636C22.2857 12.8657 21.8807 13.2727 21.381 13.2727C20.8813 13.2727 20.4762 12.8657 20.4762 12.3636V10.5455H18.6667C18.167 10.5455 17.7619 10.1384 17.7619 9.63637C17.7619 9.13429 18.167 8.72728 18.6667 8.72728H20.4762V6.90909C20.4762 6.40702 20.8813 6 21.381 6ZM14.6083 10.6599C14.8815 10.5073 15.2137 10.5073 15.487 10.6599L23.6298 15.2053C23.9171 15.3656 24.0952 15.6698 24.0952 16C24.0952 16.3302 23.9171 16.6344 23.6298 16.7947L15.487 21.3402C15.2137 21.4927 14.8815 21.4927 14.6083 21.3402L6.46537 16.7947C6.17814 16.6344 6 16.3302 6 16C6 15.6698 6.17814 15.3656 6.46537 15.2053L14.6083 10.6599ZM8.76778 16L15.0476 19.5055L21.3275 16L15.0476 12.4945L8.76778 16ZM8.66956 20.4907C8.85655 20.2155 8.88552 19.8468 8.71353 19.5358C8.47085 19.0969 7.92003 18.9387 7.48323 19.1826L6.46537 19.7507C6.17814 19.9111 6 20.2153 6 20.5455C6 20.8757 6.17814 21.1798 6.46537 21.3402L14.6083 25.8857C14.8815 26.0381 15.2137 26.0381 15.487 25.8857L23.6298 21.3402C23.9171 21.1798 24.0952 20.8757 24.0952 20.5455C24.0952 20.2153 23.9171 19.9111 23.6298 19.7507L22.612 19.1826C22.1752 18.9387 21.6244 19.0969 21.3817 19.5358C21.2097 19.8468 21.2387 20.2155 21.4256 20.4907L15.0476 24.0509L8.66956 20.4907Z" fill="white"/>
</svg>
