<svg width="32" height="32" viewBox="0 0 32 32" fill="none" xmlns="http://www.w3.org/2000/svg">
<rect width="31.67" height="31.67" rx="15.835" fill="#AB813E"/>
<path d="M24.3992 19.7652C24.0792 18.4291 23.0392 17.417 21.7192 17.2146L17.9192 16.5668C17.9592 16.4049 17.9992 16.2024 17.9992 16C17.9992 15.7976 17.9592 15.5951 17.9192 15.4332L21.7192 14.7854C24.1592 14.3806 24.4392 12.1134 24.6392 11.3036C24.6792 11.1012 24.5592 10.8988 24.3592 10.8178C23.7592 10.6154 21.5592 9.60324 19.9192 11.6275L17.4792 14.6235C17.1992 14.3401 16.8792 14.1377 16.4792 14.0567L17.8392 10.413C18.7192 8.06478 16.8792 6.64777 16.3192 6.12146C16.1592 5.95951 15.9192 5.95951 15.7592 6.12146C15.1992 6.64777 13.3592 8.06478 14.2392 10.413L15.5992 14.0567C15.1992 14.1377 14.8792 14.3401 14.5992 14.6235L12.1592 11.6275C11.2792 10.5749 9.87922 10.17 8.63922 10.5344L7.71923 10.8178C7.51923 10.8988 7.39923 11.1012 7.43923 11.3036C7.59923 12.0729 7.87923 14.3806 10.3592 14.7854L14.1592 15.4332C14.0392 15.5951 13.9992 15.7976 13.9992 16C13.9992 16.2024 14.0392 16.4049 14.0792 16.5668L10.2792 17.2146C7.83923 17.6194 7.55923 19.9271 7.35923 20.6964C7.31923 20.8988 7.43923 21.1012 7.63923 21.1822C8.23922 21.3846 10.4792 22.3563 12.0792 20.3725L14.5192 17.3765C14.7992 17.6599 15.1192 17.8623 15.5192 17.9433C14.3192 21.1822 12.9992 23.3279 15.0392 25.2308L15.7192 25.8785C15.7992 25.9595 15.8792 26 15.9992 26C16.1192 26 16.1992 25.9595 16.2792 25.8785L16.9592 25.2308C18.9992 23.2874 17.5992 21.0607 16.4392 17.9433C16.8392 17.8623 17.1592 17.6599 17.4392 17.3765L19.8792 20.3725C20.7592 21.4251 22.1592 21.83 23.3992 21.4656L24.3192 21.1822C24.5192 21.1012 24.6392 20.8988 24.5992 20.6964L24.3992 19.7652ZM20.5192 12.1134C21.5992 10.7773 22.9992 11.2227 23.7592 11.4656C23.6792 11.8704 23.4392 13.6518 21.5992 13.9757L18.5992 14.502L20.5192 12.1134ZM10.3992 13.9757C8.87922 13.7328 8.47922 12.5992 8.23922 11.4656L8.79922 11.3036C9.75922 11.0202 10.8392 11.3036 11.4792 12.1134L13.3992 14.502L10.3992 13.9757ZM11.4792 19.8866C10.5192 21.0607 9.39922 20.8988 8.23922 20.5344C8.31922 20.1296 8.55922 18.3482 10.3992 18.0243L13.3992 17.498L11.4792 19.8866ZM15.9992 6.93117C16.3992 7.29555 17.7192 8.34818 17.0792 10.0891L15.9992 12.9636L14.9192 10.0891C14.3992 8.63158 15.1992 7.7004 15.9992 6.93117ZM16.4392 24.664L16.0392 25.0688L15.6392 24.664C14.0792 23.2065 15.1592 21.4656 16.0392 19.0364C16.9592 21.587 17.9592 23.247 16.4392 24.664ZM15.9992 17.2146C15.3192 17.2146 14.7992 16.6883 14.7992 16C14.7992 15.3117 15.3192 14.7854 15.9992 14.7854C16.6792 14.7854 17.1992 15.3117 17.1992 16C17.1992 16.6883 16.6792 17.2146 15.9992 17.2146ZM23.1992 20.6964C22.2392 20.9798 21.1592 20.6964 20.5192 19.8866L18.5992 17.498L21.5992 18.0243C22.5992 18.1862 23.3992 18.9555 23.6392 19.9676L23.7592 20.5344L23.1992 20.6964Z" fill="white"/>
<path d="M10.8398 9.60276C11.0398 9.64324 11.2798 9.4813 11.3198 9.27887L11.5198 8.14527L12.5998 8.55013C12.7998 8.6311 13.0398 8.50964 13.1198 8.30721C13.1998 8.10478 13.0798 7.86187 12.8798 7.78089L11.3598 7.21409C11.2398 7.17361 11.1198 7.17361 11.0398 7.25458C10.8798 7.29506 10.8398 7.37604 10.7998 7.49749L10.5198 9.11693C10.4798 9.35984 10.6398 9.56227 10.8398 9.60276Z" fill="white"/>
<path d="M7.91999 17.2952C8.07999 17.1333 8.03999 16.8499 7.87999 16.7284L7.04 15.9997L7.91999 15.2709C8.07999 15.109 8.11999 14.8661 7.95999 14.7041C7.79999 14.5422 7.56 14.5017 7.4 14.6636L6.16 15.7163C6.04 15.7568 6 15.8782 6 15.9997C6 16.1211 6.04 16.2426 6.16 16.3236L7.4 17.3762C7.56 17.4976 7.8 17.4976 7.91999 17.2952Z" fill="white"/>
<path d="M12.5998 23.4905L11.5198 23.8954L11.3198 22.7618C11.2798 22.5593 11.0798 22.3974 10.8398 22.4379C10.6398 22.4784 10.4798 22.6808 10.5198 22.9237L10.7998 24.5431C10.8398 24.7861 11.1198 24.948 11.3198 24.867L12.8398 24.3002C13.0398 24.2193 13.1598 23.9763 13.0798 23.7739C12.9998 23.531 12.7998 23.4095 12.5998 23.4905Z" fill="white"/>
<path d="M21.1605 22.3969C20.9605 22.3564 20.7205 22.5183 20.6805 22.7208L20.4805 23.8544L19.4005 23.4495C19.2005 23.3685 18.9605 23.49 18.8805 23.6924C18.8005 23.8948 18.9205 24.1378 19.1205 24.2187L20.6405 24.7855C20.7605 24.826 20.8805 24.826 20.9605 24.745C21.0805 24.7046 21.1205 24.5831 21.1605 24.4616L21.4405 22.8422C21.5205 22.6398 21.3605 22.4374 21.1605 22.3969Z" fill="white"/>
<path d="M25.8403 15.6772L24.6003 14.6246C24.4403 14.4626 24.1603 14.5031 24.0403 14.6651C23.8803 14.827 23.9203 15.1104 24.0803 15.2319L24.9603 15.9606L24.0803 16.6894C23.9203 16.8513 23.8803 17.0942 24.0403 17.2562C24.2003 17.4181 24.4403 17.4586 24.6003 17.2966L25.8403 16.244C25.9203 16.163 26.0003 16.0416 26.0003 15.9201C26.0003 15.7987 25.9603 15.7582 25.8403 15.6772Z" fill="white"/>
<path d="M19.3996 8.51101L20.4796 8.10615L20.6796 9.23975C20.7196 9.44218 20.9196 9.60412 21.1596 9.56364C21.3596 9.52315 21.5196 9.32072 21.4796 9.07781L21.1996 7.49886C21.1596 7.3774 21.1196 7.29643 20.9996 7.21546C20.8796 7.17497 20.7596 7.13449 20.6796 7.17497L19.1596 7.74177C18.9596 7.82275 18.8396 8.06566 18.9196 8.26809C18.9996 8.47052 19.1996 8.59198 19.3996 8.51101Z" fill="white"/>
</svg>
