<svg width="32" height="32" viewBox="0 0 32 32" fill="none" xmlns="http://www.w3.org/2000/svg">
<rect width="31.67" height="31.67" rx="15.835" fill="#AB813E"/>
<path d="M6.30601 16.9903L8.06437 17.135C8.22037 17.6883 8.43937 18.2183 8.71805 18.7157L7.57769 20.059C7.46536 20.1913 7.47369 20.3877 7.59636 20.5103L9.75373 22.6673C9.87606 22.7897 10.0727 22.798 10.2051 22.6857L11.5481 21.5457C12.0454 21.8243 12.5754 22.0433 13.1288 22.199L13.2731 23.9573C13.2875 24.1303 13.4321 24.2633 13.6055 24.2633H16.1598C17.1999 25.3367 18.6565 26 20.2632 26C23.4266 26 26 23.4267 26 20.2633C26 18.6567 25.3367 17.2033 24.2633 16.1633V13.6057C24.2633 13.432 24.1303 13.2877 23.9573 13.2733L22.1986 13.1287C22.0426 12.575 21.8236 12.0453 21.5453 11.548L22.6856 10.2047C22.7979 10.0723 22.7896 9.876 22.6669 9.75333L20.5096 7.59633C20.3869 7.47333 20.1902 7.46533 20.0582 7.57767L18.7152 8.71767C18.2182 8.43933 17.6882 8.22033 17.1345 8.06467L16.9899 6.306C16.9755 6.133 16.8308 6 16.6575 6H13.6055C13.4318 6 13.2875 6.133 13.2731 6.306L13.1288 8.06433C12.5754 8.22 12.0454 8.43933 11.5481 8.71767L10.2051 7.57767C10.0727 7.46533 9.8764 7.47333 9.75373 7.596L7.59636 9.753C7.47369 9.87567 7.46536 10.072 7.57769 10.2043L8.71805 11.5477C8.43937 12.045 8.22037 12.575 8.06437 13.1283L6.30601 13.273C6.133 13.287 6 13.4317 6 13.6053V16.6573C6 16.831 6.133 16.9753 6.30601 16.9897V16.9903ZM22.8769 19.0537L19.9836 21.947C19.9169 22.0137 19.8302 22.047 19.7469 22.047C19.6602 22.047 19.5769 22.0137 19.5102 21.947L17.6502 20.0903C17.5202 19.9603 17.5202 19.747 17.6502 19.617C17.7802 19.487 17.9935 19.487 18.1235 19.617L19.7469 21.2403L22.4069 18.5803C22.5369 18.4503 22.7469 18.4503 22.8769 18.5803C23.007 18.7103 23.007 18.9237 22.8769 19.0537ZM14.7068 18.8467C12.8251 18.638 11.3874 17.058 11.3874 15.132C11.3874 13.0673 13.0671 11.3877 15.1315 11.3877C17.0579 11.3877 18.6385 12.826 18.8465 14.708C16.8218 15.2223 15.2235 16.8213 14.7068 18.8467ZM6.66668 13.913L8.35404 13.774C8.49671 13.7623 8.61604 13.6607 8.65038 13.5217C8.81105 12.87 9.06672 12.252 9.41006 11.6847C9.48439 11.562 9.47206 11.4057 9.37906 11.2963L8.28504 10.0073L10.0081 8.28467L11.2964 9.37833C11.4061 9.47167 11.5628 9.48333 11.6848 9.40933C12.2521 9.066 12.8704 8.81067 13.5218 8.65C13.6608 8.61567 13.7628 8.49633 13.7745 8.35367L13.9128 6.66633H16.3508L16.4895 8.35367C16.5015 8.49633 16.6032 8.61567 16.7422 8.65C17.3939 8.81067 18.0119 9.06633 18.5789 9.40933C18.7015 9.48333 18.8579 9.471 18.9672 9.37833L20.2559 8.28467L21.9789 10.0073L20.8849 11.2963C20.7922 11.4057 20.7799 11.562 20.8539 11.6847C21.1969 12.2513 21.4526 12.8693 21.6133 13.5217C21.6476 13.6607 21.7669 13.7623 21.9096 13.774L23.597 13.913V15.6037C22.6569 14.927 21.5069 14.5303 20.2636 14.5303C20.0069 14.5303 19.7536 14.547 19.5069 14.5837C19.5059 14.5837 19.5049 14.5837 19.5039 14.584C19.2369 12.3903 17.3842 10.721 15.1315 10.721C12.6994 10.721 10.7207 12.6997 10.7207 15.132C10.7207 17.3847 12.3901 19.237 14.5838 19.504C14.5838 19.505 14.5838 19.506 14.5835 19.507C14.5468 19.7537 14.5301 20.007 14.5301 20.2637C14.5301 21.507 14.9268 22.657 15.6002 23.597H13.9128L13.7745 21.9097C13.7628 21.767 13.6608 21.6477 13.5218 21.6133C12.8704 21.4527 12.2521 21.197 11.6848 20.8537C11.5624 20.7793 11.4061 20.792 11.2964 20.8847L10.0081 21.9783L8.28504 20.2557L9.37906 18.9667C9.47172 18.8573 9.48406 18.701 9.41006 18.5783C9.06672 18.0113 8.81105 17.3933 8.65038 16.7417C8.61604 16.6027 8.49671 16.501 8.35404 16.4893L6.66668 16.3507V13.913Z" fill="white"/>
</svg>
