<svg width="32" height="32" viewBox="0 0 32 32" fill="none" xmlns="http://www.w3.org/2000/svg">
<rect width="31.67" height="31.67" rx="15.835" fill="#AB813E"/>
<path d="M16 6C10.4884 6 6 10.4884 6 16C6 21.5116 10.4884 26 16 26C21.5116 26 26 21.5116 26 16C26 10.4884 21.5116 6 16 6ZM21.9674 23C20.307 24.4186 18.186 25.2 16 25.2C10.9256 25.2 6.8 21.0744 6.8 16C6.8 13.814 7.5814 11.693 8.99535 10.0326C9.03721 9.9814 9.10233 9.95349 9.16744 9.94884C9.23256 9.94884 9.29767 9.97209 9.34419 10.0186L21.9814 22.6512C22.0279 22.6977 22.0512 22.7628 22.0512 22.8279C22.0465 22.8977 22.0186 22.9581 21.9674 23ZM23.0047 21.9674C22.9628 22.0186 22.8977 22.0465 22.8326 22.0512H22.8233C22.7581 22.0512 22.6977 22.0279 22.6558 21.9814L10.0186 9.34884C9.97209 9.30233 9.94884 9.23721 9.94884 9.17209C9.95349 9.10698 9.9814 9.04186 10.0326 9C11.693 7.5814 13.814 6.8 16 6.8C21.0744 6.8 25.2 10.9256 25.2 16C25.2 18.186 24.4186 20.307 23.0047 21.9674Z" fill="white"/>
<path d="M20.0609 21.4039C19.9586 21.5388 19.8376 21.6644 19.712 21.7806C19.4981 21.9713 19.233 22.1248 18.8841 22.2644C18.926 22.0737 18.9539 21.8737 18.9632 21.6644C18.9772 21.3388 18.9353 20.9946 18.8283 20.6364C18.7865 20.4923 18.7632 20.3109 18.7539 20.1016L20.0609 21.4039Z" fill="white"/>
<path d="M17.6558 19.0006C17.3628 19.1959 17.1907 19.4331 17.093 19.6378C16.7349 19.1634 16.6372 18.5122 16.6279 17.9727L17.6558 19.0006Z" fill="white"/>
<path d="M18.4882 21.6422C18.4743 21.9305 18.4231 22.2003 18.3348 22.4515C18.3208 22.4561 18.3068 22.4608 18.2975 22.4608C15.7022 23.2422 13.772 22.1817 13.3906 21.9445C13.3627 21.8422 13.3441 21.7398 13.3348 21.6282C13.3348 21.6189 13.3301 21.6096 13.3301 21.6003C13.3255 21.5864 13.0324 20.3026 13.6045 19.7398C13.6882 20.1957 13.8882 20.9259 14.3115 21.2096C14.5534 21.3724 14.8464 21.3678 15.0929 21.191C15.4464 20.9398 15.6231 20.4003 15.5022 19.9398C15.4882 19.8608 15.465 19.7631 15.4371 19.6515C15.2231 18.8096 15.0743 17.8747 16.0045 17.3398L16.172 17.5073C16.1208 18.2794 16.1906 19.5631 17.0557 20.2747C17.0975 20.3119 17.1534 20.3305 17.2092 20.3305C17.2417 20.3305 17.2696 20.3259 17.3022 20.3119C17.3859 20.2794 17.4371 20.2003 17.4464 20.1166C17.4464 20.1119 17.4975 19.6468 18.0138 19.3491L18.2975 19.6329C18.2743 20.1026 18.3022 20.484 18.3859 20.7724C18.4603 21.0747 18.5022 21.3724 18.4882 21.6422Z" fill="white"/>
<path d="M14.968 19.772C14.9959 19.8789 15.0191 19.9673 15.0284 20.0278C15.0284 20.0371 15.0331 20.0464 15.0331 20.051C15.1168 20.358 14.9819 20.6789 14.8098 20.7999C14.7028 20.8789 14.6284 20.8464 14.5726 20.8092C14.261 20.5999 14.0656 19.7766 14.0145 19.3115C14.0052 19.2371 13.9633 19.1673 13.8982 19.1301C13.8331 19.0929 13.754 19.0882 13.6842 19.1161C12.647 19.5487 12.7307 20.8929 12.8145 21.4603C12.1354 20.7906 11.461 19.758 11.3075 18.251C11.3075 18.2464 11.3075 18.2417 11.3075 18.2417C11.3028 18.2185 11.0284 16.1673 12.4052 15.2324C12.4935 15.6975 12.74 16.4743 13.4377 16.8975C13.6331 17.0185 13.847 17.0371 14.0424 16.958C14.3773 16.8231 14.5959 16.4324 14.7307 16.0789L15.6424 16.9906C14.4563 17.772 14.8098 19.158 14.968 19.772Z" fill="white"/>
<path d="M20.6838 19.3397L14.4699 13.1258C14.1861 11.8002 14.5396 10.1072 16.3722 9.37695C16.2931 9.7723 16.1954 10.4095 16.2094 11.1677C16.2373 12.8467 16.7815 14.3072 17.7908 15.3956C17.8559 15.4653 17.9536 15.4886 18.042 15.4607C18.1303 15.4281 18.1954 15.349 18.2001 15.256C18.2047 15.1909 18.3536 13.7444 19.9768 13.2607C19.735 14.0839 19.3164 15.9258 20.0792 16.9304C20.2885 17.2049 20.4327 17.4839 20.5071 17.7677C20.6094 18.1258 20.6978 18.7118 20.6838 19.3397Z" fill="white"/>
</svg>
