<svg width="32" height="32" viewBox="0 0 32 32" fill="none" xmlns="http://www.w3.org/2000/svg">
<rect x="0.00976562" width="31.67" height="31.67" rx="15.835" fill="#AB813E"/>
<path d="M17.8754 22.4102L15.8027 26.0001H19.6924L21.765 22.4102H17.8754Z" fill="white"/>
<path d="M12.615 22.4102C12.6132 22.4134 12.6118 22.4168 12.6099 22.42L10.543 26.0001H14.4203L16.493 22.4102H12.615V22.4102Z" fill="white"/>
<path d="M6.60809 22.4102C6.27766 22.4102 6.00977 22.678 6.00977 23.0085V25.4018C6.00977 25.7322 6.27766 26.0001 6.60809 26.0001H9.1637C9.1688 25.99 9.17347 25.9797 9.17921 25.9698L11.2344 22.4102H6.60809Z" fill="white"/>
<path d="M25.8345 22.4102H23.1469L21.0742 26.0001H25.8345C26.1649 26.0001 26.4328 25.7322 26.4328 25.4018V23.0085C26.4328 22.678 26.1649 22.4102 25.8345 22.4102Z" fill="white"/>
<path d="M8.94371 20.7158H10.7489C11.5419 20.6863 11.5413 19.5483 10.7489 19.5191H10.4151C12.7796 17.5992 13.9302 13.0074 13.2195 9.48797C13.1617 9.1626 12.8508 8.94561 12.5257 9.00349C12.2004 9.06128 11.9834 9.37185 12.0412 9.69722C12.698 12.8606 11.6049 17.181 9.45739 18.7575V18.2277C9.42795 17.4347 8.2899 17.4353 8.26074 18.2277V20.0328C8.26078 20.3776 8.59999 20.7158 8.94371 20.7158Z" fill="white"/>
<path d="M22.0273 19.5191H21.6935C20.9005 19.5486 20.9011 20.6866 21.6935 20.7158H23.4987C23.8419 20.7158 24.1816 20.3748 24.1816 20.0328V18.2277C24.1521 17.4346 23.0141 17.4352 22.9849 18.2277V18.7574C20.8375 17.1814 19.7442 12.86 20.4011 9.69722C20.4589 9.37189 20.2421 9.06128 19.9166 9.00349C19.5913 8.94561 19.2807 9.1626 19.2229 9.48797C18.5123 13.0084 19.6626 17.5983 22.0273 19.5191Z" fill="white"/>
<path d="M15.7378 19.4951C15.9784 19.7356 16.4589 19.7399 16.7037 19.4951L17.9801 18.2186C18.2138 17.985 18.2138 17.6062 17.9801 17.3725C17.7465 17.1388 17.3676 17.1388 17.1339 17.3725L16.8191 17.6874V6.59454C16.7896 5.80152 15.6516 5.80212 15.6224 6.59454V17.6874L15.3075 17.3725C15.0739 17.1388 14.695 17.1388 14.4614 17.3725C14.2277 17.6062 14.2277 17.985 14.4614 18.2186L15.7378 19.4951Z" fill="white"/>
</svg>
