<svg width="33" height="32" viewBox="0 0 33 32" fill="none" xmlns="http://www.w3.org/2000/svg">
<rect x="0.679688" width="31.67" height="31.67" rx="15.835" fill="#AB813E"/>
<path d="M26.7153 18.3022C26.7153 18.3022 26.3957 18.1367 26.0221 18.145C25.8766 18.1482 25.7319 18.1647 25.5918 18.2047C24.6533 18.4702 22.2869 19.1364 20.5897 19.5865C20.0178 19.7379 19.4181 19.7828 18.831 19.7176C18.8229 19.5236 18.7645 19.3255 18.6616 19.1444C18.5538 18.9535 18.3953 18.773 18.1913 18.6086C17.5426 18.0862 16.6473 17.4568 15.5297 16.7385C14.7436 16.2332 13.5212 15.4916 12.9062 15.2126C12.4975 15.0289 12.1282 14.891 11.7769 14.7903C11.3232 14.6601 10.8955 14.5936 10.5065 14.5918C10.1395 14.5918 9.80618 14.6538 9.51554 14.7751C9.01362 14.9857 8.58534 15.2021 8.23665 15.4213C8.16774 15.2618 8.00908 15.1501 7.82422 15.1501H5.12891C4.8808 15.1501 4.67969 15.3512 4.67969 15.5993V22.8337C4.67969 23.0818 4.8808 23.2829 5.12891 23.2829H7.82422C8.07233 23.2829 8.27344 23.0818 8.27344 22.8337V22.2228C8.48058 22.1955 8.77051 22.169 9.11483 22.169H9.12022C9.85021 22.169 10.9351 22.2916 11.9588 22.8778C12.3658 23.1091 12.7962 23.3185 13.2382 23.4999C13.66 23.6733 14.094 23.822 14.5288 23.942C15.3593 24.1711 16.1849 24.2932 16.9162 24.2946C17.7374 24.2962 18.4754 24.0509 19.2451 23.7978C19.724 23.6401 20.3224 23.4384 21.0748 23.1806C21.1885 23.142 21.2797 23.0611 21.3327 22.9533C21.3852 22.8459 21.3933 22.7238 21.3542 22.6105C21.2922 22.4286 21.1215 22.3064 20.9293 22.3064C20.8799 22.3064 20.8309 22.3145 20.7837 22.3307C20.0501 22.5818 19.4379 22.7884 18.9637 22.9443C18.2869 23.1674 17.6414 23.3961 16.9209 23.3961H16.9048C15.8244 23.3961 14.0751 23.0547 12.4045 22.0975C11.8703 21.7929 11.2814 21.5692 10.6534 21.4322C10.162 21.3253 9.64491 21.2705 9.11618 21.2705C8.83093 21.2705 8.54747 21.2862 8.27344 21.3177V16.5085C8.45044 16.345 8.89112 16.0108 9.86323 15.6038C10.042 15.5283 10.2581 15.4902 10.5065 15.4902H10.5191C11.2724 15.4902 12.1803 15.8684 12.5352 16.031C12.8523 16.1743 16.2502 18.1966 17.6275 19.3079C17.7717 19.4243 17.8441 19.5231 17.8791 19.586C17.9267 19.6718 17.924 19.8528 17.9025 19.8986C17.902 19.8997 17.9017 19.9008 17.9012 19.9018C17.8064 20.098 17.5255 20.2762 17.1839 20.3565C16.5664 20.5017 15.868 20.3282 15.3156 19.8924C14.6479 19.3655 13.953 18.9756 13.2501 18.7334C13.0156 18.6527 12.7599 18.7773 12.6791 19.0118C12.5983 19.2463 12.7229 19.502 12.9575 19.5828C13.5646 19.792 14.1708 20.1335 14.7591 20.5977C15.3477 21.0621 16.0406 21.3071 16.7312 21.3071C16.952 21.3071 17.1726 21.282 17.3894 21.2311C17.8699 21.1182 18.2652 20.8886 18.5209 20.5829C19.2845 20.6959 20.0722 20.6527 20.8197 20.4547C22.5181 20.0046 24.8913 19.326 25.8365 19.0689C26.1853 18.9741 26.5587 19.167 26.708 19.4911C26.8704 19.8435 26.7044 20.2585 26.3376 20.395C26.334 20.3964 26.3303 20.3977 26.3266 20.399C25.9448 20.5338 25.3362 20.7481 24.6062 21.0041C24.3759 21.0849 24.2504 21.3463 24.3308 21.5764C24.411 21.8062 24.6742 21.9333 24.9035 21.8518C25.4489 21.6609 26.0122 21.4628 26.6254 21.2462C26.885 21.1546 27.1168 20.9965 27.2965 20.788C27.4757 20.5796 27.5984 20.3272 27.6509 20.0572C27.6698 19.9584 27.6797 19.8568 27.6797 19.7567C27.6797 19.1215 27.301 18.5506 26.7153 18.3022ZM7.37501 21.8442V22.3845H5.57813V16.0484H7.37501V21.8442Z" fill="white"/>
<path d="M26.8949 12.7715C26.3389 12.3625 24.0788 11.1258 21.3971 9.84095C21.3937 9.83929 21.3902 9.83767 21.3867 9.83615C20.5751 9.47247 19.7522 9.1207 18.9327 8.83491C18.9056 8.82247 18.8777 8.8129 18.8491 8.80612C16.8858 8.13227 14.9445 7.84819 13.2267 8.69925C12.4506 8.2071 11.7 7.67313 10.9795 7.09815C10.7855 6.94335 10.5029 6.97511 10.3481 7.16903C10.1934 7.36296 10.2251 7.6456 10.419 7.8003C11.1847 8.41131 11.983 8.97799 12.8091 9.49852C13.0029 10.3101 13.3456 11.183 13.7427 11.8689C14.2913 12.8165 14.8657 13.31 15.45 13.3356L15.45 13.3347C15.5369 13.3392 15.6345 13.3203 15.7246 13.2552C16.097 13.6787 16.2713 13.8142 16.3703 13.878C17.7058 14.7714 19.2381 15.0473 20.6217 15.0473C21.3405 15.0473 22.0192 14.9728 22.609 14.8716C24.5285 14.5541 26.1398 13.8409 26.7465 13.5724L26.8101 13.5443C26.9568 13.4796 27.0579 13.3417 27.0753 13.1823C27.0928 13.023 27.024 12.8664 26.8949 12.7715ZM16.0586 12.2575C16.0696 12.2738 16.08 12.2919 16.0894 12.3117C16.0804 12.293 16.0701 12.2749 16.0586 12.2575ZM16.1249 12.5953C16.1307 12.5664 16.1337 12.5373 16.1338 12.5083C16.1338 12.5365 16.1309 12.5657 16.1249 12.5953ZM22.4597 13.9858C21.8275 14.0942 21.0853 14.17 20.3077 14.1436C20.3579 13.9333 20.3942 13.6515 20.3468 13.3445C20.3091 13.0993 20.0797 12.9313 19.8344 12.969C19.5892 13.0068 19.4211 13.2362 19.4589 13.4814C19.497 13.7282 19.4341 13.957 19.397 14.0634C18.5291 13.937 17.6532 13.6562 16.8666 13.1291C16.8638 13.1273 16.8609 13.1254 16.8581 13.1236C16.6951 13.0196 16.1927 12.4318 16.0523 12.2481C16.0215 12.2043 15.9825 12.1654 15.936 12.134C15.7577 12.0136 15.519 12.0364 15.3669 12.1886C15.3369 12.2186 15.3276 12.2279 15.2639 12.3386C15.0792 12.2089 14.8192 11.9351 14.5203 11.4188C14.3069 11.0502 14.1111 10.6206 13.9508 10.1785C16.6345 11.6874 19.6117 12.7296 22.6623 13.2334C22.8782 13.2334 23.1055 13.0804 23.1418 12.8604C23.1823 12.6156 23.0166 12.3844 22.7718 12.344C19.7472 11.8445 16.8352 10.7997 14.1879 9.27931C15.3804 8.90306 16.724 9.08243 18.1108 9.51052C17.9972 9.78121 17.8867 10.1199 17.8384 10.4746C17.805 10.7205 18.0078 10.9489 18.2536 10.9823C18.4748 10.9823 18.698 10.821 18.7287 10.5957C18.7698 10.2932 18.8733 10.0079 18.9646 9.80111C19.647 10.053 20.3344 10.349 21.0142 10.6536C21.3066 10.7937 21.5953 10.934 21.8782 11.0731C21.9037 11.2628 21.9292 11.452 21.9549 11.6408C21.9856 11.8661 22.2088 12.0275 22.43 12.0275C22.6634 11.9957 22.8605 11.788 22.8483 11.557C24.0078 12.1437 25.0068 12.68 25.6612 13.0583C24.8971 13.3669 23.7478 13.7727 22.4597 13.9858Z" fill="white"/>
<path d="M22.8438 22.5449C23.0918 22.5449 23.293 22.3438 23.293 22.0957C23.293 21.8476 23.0918 21.6465 22.8438 21.6465C22.5957 21.6465 22.3945 21.8476 22.3945 22.0957C22.3945 22.3438 22.5957 22.5449 22.8438 22.5449Z" fill="white"/>
</svg>
