<svg width="32" height="32" viewBox="0 0 32 32" fill="none" xmlns="http://www.w3.org/2000/svg">
<rect width="31.67" height="31.67" rx="15.835" fill="#AB813E"/>
<path fill-rule="evenodd" clip-rule="evenodd" d="M15.5054 22.037C15.5227 22.0063 15.5263 21.9833 15.5263 21.9705V8.88539L11.4516 12.8173C11.2746 12.9881 11.037 13.0838 10.7895 13.0838H8.89474V17.761H10.7895C11.0444 17.761 11.2886 17.8625 11.4668 18.0425L15.47 22.0849C15.4833 22.0708 15.4956 22.0545 15.5054 22.037ZM16.5224 23.6475C16.0108 24.0019 15.2296 24.1799 14.5162 23.7401C14.381 23.6568 14.2837 23.5631 14.2297 23.5086L10.3908 19.6319H8.89474C7.8483 19.6319 7 18.7943 7 17.761V13.0838C7 12.0505 7.8483 11.2129 8.89474 11.2129H10.4034L14.2958 7.45691C14.3252 7.42848 14.3565 7.40198 14.3895 7.37757C15.6386 6.45256 17.4211 7.33259 17.4211 8.87428V21.9705C17.4211 22.6869 17.0281 23.2972 16.5224 23.6475ZM22.8278 19.3579C22.4579 19.7232 21.858 19.7232 21.488 19.3579L19.5933 17.487C19.2233 17.1217 19.2233 16.5294 19.5933 16.1641C19.9632 15.7988 20.5631 15.7988 20.9331 16.1641L21.2105 16.4381V12.1483C21.2105 11.6317 21.6347 11.2129 22.1579 11.2129C22.6811 11.2129 23.1053 11.6317 23.1053 12.1483V16.4381L23.3828 16.1641C23.7527 15.7988 24.3526 15.7988 24.7225 16.1641C25.0925 16.5294 25.0925 17.1217 24.7225 17.487L22.8278 19.3579Z" fill="white"/>
</svg>
