<svg width="32" height="32" viewBox="0 0 32 32" fill="none" xmlns="http://www.w3.org/2000/svg">
<rect width="31.67" height="31.67" rx="15.835" fill="#AB813E"/>
<path d="M22.8951 11.5276H20.5202V5.4167C20.5202 5.18638 20.3336 5 20.1035 5H14.1822C14.1737 5 14.166 5.00437 14.1576 5.00488C14.1199 5.00717 14.0835 5.0144 14.0478 5.02676C14.0349 5.03118 14.0224 5.03456 14.01 5.04024C13.9656 5.06058 13.9234 5.08622 13.8876 5.12208L11.1497 7.85953C11.114 7.89523 11.0885 7.93723 11.0682 7.98143C11.0622 7.99435 11.0587 8.00742 11.0541 8.0209C11.0422 8.05577 11.0352 8.09115 11.0328 8.12792C11.0323 8.13695 11.0276 8.14504 11.0276 8.15415V11.5276H8.65276C7.74143 11.5276 7 12.2691 7 13.1802V19.7973C7 20.7085 7.74143 21.4499 8.65276 21.4499H11.0291V24.5833C11.0291 24.8136 11.2156 25 11.4458 25H20.1021C20.3322 25 20.5188 24.8136 20.5188 24.5833V21.4499H22.8951C23.8064 21.4499 24.5478 20.7085 24.5478 19.7973V13.1802C24.5478 12.2691 23.8064 11.5276 22.8951 11.5276ZM13.7655 6.42264V7.73745H12.4505L13.7655 6.42264ZM11.861 8.57085H14.1822C14.4123 8.57085 14.5989 8.38447 14.5989 8.15415V5.8334H19.6868V11.5276H11.861V8.57085ZM19.6854 24.1666H11.8625V17.7757H19.6854V24.1666ZM23.7144 19.7973C23.7144 20.249 23.3467 20.6165 22.8951 20.6165H20.5188V17.7757H20.8478C21.0779 17.7757 21.2645 17.5893 21.2645 17.359C21.2645 17.1287 21.0779 16.9423 20.8478 16.9423H20.1021H11.4458H10.7C10.4699 16.9423 10.2833 17.1287 10.2833 17.359C10.2833 17.5893 10.4699 17.7757 10.7 17.7757H11.0291V20.6165H8.65276C8.20107 20.6165 7.8334 20.249 7.8334 19.7973V13.1802C7.8334 12.7285 8.20107 12.361 8.65276 12.361H11.4343C11.4378 12.3611 11.4407 12.3631 11.4443 12.3631H20.1035C20.1071 12.3631 20.11 12.3611 20.1136 12.361H22.8951C23.3467 12.361 23.7144 12.7285 23.7144 13.1802V19.7973Z" fill="white"/>
<path d="M18.0072 19.1152H13.5407C13.3106 19.1152 13.124 19.3016 13.124 19.5319C13.124 19.7623 13.3106 19.9486 13.5407 19.9486H18.0072C18.2374 19.9486 18.4239 19.7623 18.4239 19.5319C18.4239 19.3016 18.2374 19.1152 18.0072 19.1152Z" fill="white"/>
<path d="M18.0072 20.7441H13.5407C13.3106 20.7441 13.124 20.9305 13.124 21.1608C13.124 21.3912 13.3106 21.5775 13.5407 21.5775H18.0072C18.2374 21.5775 18.4239 21.3912 18.4239 21.1608C18.4239 20.9305 18.2374 20.7441 18.0072 20.7441Z" fill="white"/>
<path d="M16.705 22.3711H13.5407C13.3106 22.3711 13.124 22.5575 13.124 22.7878C13.124 23.0181 13.3106 23.2045 13.5407 23.2045H16.705C16.9352 23.2045 17.1217 23.0181 17.1217 22.7878C17.1217 22.5575 16.9352 22.3711 16.705 22.3711Z" fill="white"/>
<path d="M10.0493 13.334H9.43135C9.20123 13.334 9.01465 13.5204 9.01465 13.7507C9.01465 13.981 9.20123 14.1674 9.43135 14.1674H10.0493C10.2794 14.1674 10.466 13.981 10.466 13.7507C10.466 13.5204 10.2794 13.334 10.0493 13.334Z" fill="white"/>
<path d="M12.0641 13.334H11.446C11.2159 13.334 11.0293 13.5204 11.0293 13.7507C11.0293 13.981 11.2159 14.1674 11.446 14.1674H12.0641C12.2943 14.1674 12.4808 13.981 12.4808 13.7507C12.4808 13.5204 12.2943 13.334 12.0641 13.334Z" fill="white"/>
<path d="M14.0788 13.334H13.4606C13.2305 13.334 13.0439 13.5204 13.0439 13.7507C13.0439 13.981 13.2305 14.1674 13.4606 14.1674H14.0788C14.3089 14.1674 14.4955 13.981 14.4955 13.7507C14.4955 13.5204 14.3089 13.334 14.0788 13.334Z" fill="white"/>
</svg>
