<svg width="32" height="32" viewBox="0 0 32 32" fill="none" xmlns="http://www.w3.org/2000/svg">
<rect x="0.339844" width="31.67" height="31.67" rx="15.835" fill="#AB813E"/>
<path d="M19.0343 20.2613C20.4166 20.2613 21.7433 20.305 23.062 20.2454C23.9597 20.2057 24.4244 19.1769 23.9676 18.3547C23.6856 17.8503 23.3639 17.3696 23.066 16.8731C22.6251 16.1423 22.7562 15.4392 23.4076 15.0341C24.059 14.6289 24.7422 14.8315 25.199 15.5544C25.5009 16.0311 25.8067 16.5077 26.0927 16.9923C26.8434 18.2673 26.8712 19.5741 26.1602 20.8571C25.4492 22.1401 24.3053 22.7558 22.8555 22.7796C21.6043 22.8034 20.3491 22.7836 19.0343 22.7836C19.0343 23.1927 19.0304 23.5661 19.0343 23.9395C19.0383 24.3883 18.8754 24.7418 18.4425 24.9206C18.0095 25.0993 17.652 24.9643 17.3343 24.6425C16.5518 23.8481 15.7534 23.0696 14.9709 22.2752C14.4823 21.7786 14.4863 21.2583 14.9828 20.7539C15.7574 19.9714 16.5359 19.1968 17.3184 18.4183C17.6322 18.1084 17.9936 17.9416 18.4266 18.1243C18.8715 18.311 19.0423 18.6765 19.0304 19.1412C19.0304 19.5026 19.0343 19.8522 19.0343 20.2613Z" fill="white"/>
<path d="M8.92096 13.7752C8.53964 13.5488 8.19009 13.3382 7.83658 13.1357C7.45526 12.9172 7.24474 12.5915 7.30432 12.1585C7.3639 11.7256 7.64989 11.4714 8.0749 11.3602C9.19106 11.0662 10.2993 10.7564 11.4194 10.4704C12.0033 10.3195 12.476 10.5737 12.6388 11.1576C12.9566 12.2856 13.2426 13.4177 13.5365 14.5537C13.6438 14.9787 13.5166 15.3481 13.1751 15.6103C12.8335 15.8724 12.464 15.8049 12.1066 15.6023C11.7888 15.4196 11.4671 15.2488 11.1294 15.0621C11.0579 15.1495 9.71934 17.2666 9.10367 18.2477C8.81768 18.7045 8.76604 19.1732 9.03217 19.6499C9.29433 20.1146 9.71934 20.2894 10.2397 20.2775C10.6488 20.2695 11.0579 20.2656 11.4671 20.2775C12.1781 20.2973 12.6785 20.8216 12.6746 21.5366C12.6706 22.2516 12.1781 22.7918 11.4671 22.7799C10.6806 22.764 9.86631 22.8037 9.11559 22.6131C6.69659 22.0053 5.59633 19.201 6.88328 17.068C7.47512 16.0869 8.09476 15.1257 8.69852 14.1565C8.77002 14.0373 8.83754 13.9182 8.92096 13.7752Z" fill="white"/>
<path d="M19.105 10.5222C18.5489 9.6603 18.0603 8.80233 17.4725 8.01586C16.9442 7.30883 15.9234 7.40019 15.4189 8.13899C15.2044 8.45279 15.0217 8.79042 14.8231 9.11215C14.3822 9.81918 13.5917 10.0456 12.9721 9.64441C12.3485 9.23926 12.2214 8.48457 12.6583 7.78548C12.8649 7.45183 13.0793 7.11817 13.2978 6.78849C14.9025 4.38935 18.1437 4.40524 19.7246 6.82821C20.241 7.61865 20.7335 8.42498 21.2579 9.25912C21.6034 9.05655 21.9291 8.87383 22.2509 8.6792C22.6243 8.45676 23.0016 8.42101 23.3591 8.68317C23.7166 8.94533 23.804 9.32267 23.6967 9.73974C23.4107 10.8599 23.1247 11.98 22.8229 13.0961C22.66 13.692 22.1675 13.9779 21.5836 13.823C20.4396 13.5212 19.3076 13.1955 18.1676 12.8856C17.7465 12.7704 17.5122 12.4884 17.4685 12.0793C17.4248 11.6821 17.6234 11.3643 17.961 11.1617C18.3225 10.9473 18.6959 10.7526 19.105 10.5222Z" fill="white"/>
</svg>
