<svg width="33" height="32" viewBox="0 0 33 32" fill="none" xmlns="http://www.w3.org/2000/svg">
<rect x="0.349609" width="31.67" height="31.67" rx="15.835" fill="#AB813E"/>
<path d="M21.4606 12.8753L16.6611 10.3408C16.4665 10.238 16.2334 10.238 16.0387 10.3408L11.2393 12.8753C11.0205 12.9909 10.8838 13.2178 10.8838 13.4648C10.8838 13.7119 11.0205 13.9388 11.2393 14.0544L16.0387 16.5892C16.1361 16.6406 16.2428 16.6663 16.3499 16.6663C16.457 16.6663 16.5638 16.6406 16.6611 16.5892L21.4606 14.0544C21.6794 13.9388 21.8161 13.7119 21.8161 13.4648C21.8161 13.2178 21.6794 12.9909 21.4606 12.8753ZM16.3499 15.2458L12.9782 13.4648L16.3499 11.6842L19.7217 13.4648L16.3499 15.2458Z" fill="white"/>
<path d="M20.8383 15.4116L16.3501 17.782L11.8618 15.4116C11.5359 15.239 11.1329 15.364 10.9611 15.6899C10.7892 16.0154 10.9135 16.4187 11.2394 16.5906L16.0389 19.1254C16.1362 19.1769 16.243 19.2026 16.3501 19.2026C16.4572 19.2026 16.5639 19.1769 16.6613 19.1254L21.4608 16.5906C21.7866 16.4187 21.9109 16.0154 21.7391 15.6899C21.5675 15.364 21.1639 15.239 20.8383 15.4116Z" fill="white"/>
<path d="M20.8383 17.9463L16.3501 20.3164L11.8618 17.9463C11.5359 17.7747 11.1329 17.8988 10.9611 18.2246C10.7892 18.5501 10.9135 18.9534 11.2394 19.1253L16.0389 21.6598C16.1362 21.7113 16.243 21.737 16.3501 21.737C16.4572 21.737 16.5639 21.7113 16.6613 21.6598L21.4607 19.1253C21.7866 18.9534 21.9109 18.5501 21.7391 18.2246C21.5675 17.8988 21.1639 17.7747 20.8383 17.9463Z" fill="white"/>
<path d="M16.3496 6C10.8356 6 6.34961 10.486 6.34961 16C6.34961 21.514 10.8356 26 16.3496 26C21.8636 26 26.3496 21.514 26.3496 16C26.3496 10.486 21.8636 6 16.3496 6ZM16.3496 24.6667C11.5706 24.6667 7.68294 20.779 7.68294 16C7.68294 11.221 11.5706 7.33333 16.3496 7.33333C21.1286 7.33333 25.0163 11.221 25.0163 16C25.0163 20.779 21.1286 24.6667 16.3496 24.6667Z" fill="white"/>
</svg>
