<svg width="32" height="32" viewBox="0 0 32 32" fill="none" xmlns="http://www.w3.org/2000/svg">
<rect width="31.67" height="31.67" rx="15.835" fill="#AB813E"/>
<path d="M16.3607 12.8566C16.2254 12.9638 16.2026 13.1603 16.3098 13.2956C16.9249 14.0722 17.2501 15.0072 17.2501 16C17.2501 16.9928 16.9249 17.9278 16.3098 18.7044C16.2026 18.8397 16.2254 19.0363 16.3607 19.1435C16.4182 19.1891 16.4866 19.211 16.5546 19.211C16.6468 19.211 16.738 19.1703 16.7998 19.0925C17.5032 18.2044 17.8751 17.135 17.8751 16C17.8751 14.865 17.5032 13.7956 16.7998 12.9075C16.6926 12.7724 16.496 12.7494 16.3607 12.8566Z" fill="white"/>
<path d="M15.2599 18.0383C15.3146 18.0767 15.3772 18.0951 15.4393 18.0951C15.5375 18.0951 15.6344 18.0489 15.6952 17.9622C16.0993 17.3872 16.313 16.7086 16.313 15.9997C16.313 15.2908 16.0994 14.6122 15.6952 14.0372C15.596 13.8959 15.401 13.8619 15.2597 13.9612C15.1186 14.0605 15.0846 14.2553 15.1838 14.3966C15.5136 14.8659 15.688 15.4203 15.688 15.9998C15.688 16.5794 15.5136 17.1337 15.1838 17.603C15.0847 17.7442 15.1186 17.9391 15.2599 18.0383Z" fill="white"/>
<path d="M18.8125 14.3875V17.6125L17.3148 19.5594C17.2728 19.6141 17.25 19.6809 17.25 19.75V25.6875C17.25 25.86 17.39 26 17.5625 26C17.735 26 17.875 25.86 17.875 25.6875V19.8563L19.3727 17.9094C19.4147 17.8547 19.4375 17.7878 19.4375 17.7188V14.2813C19.4375 14.2123 19.4147 14.1453 19.3727 14.0906L17.875 12.1438V6.3125C17.875 6.14 17.735 6 17.5625 6C17.39 6 17.25 6.14 17.25 6.3125V12.25C17.25 12.3189 17.2728 12.3859 17.3148 12.4406L18.8125 14.3875Z" fill="white"/>
<path d="M18.8773 20.0909C18.8353 20.1456 18.8125 20.2125 18.8125 20.2816V25.6875C18.8125 25.86 18.9525 26 19.125 26C19.2975 26 19.4375 25.86 19.4375 25.6875V20.3878L20.9352 18.4409C20.9772 18.3863 21 18.3194 21 18.2503V13.7498C21 13.6809 20.9772 13.6139 20.9352 13.5592L19.4375 11.6122V6.3125C19.4375 6.14 19.2975 6 19.125 6C18.9525 6 18.8125 6.14 18.8125 6.3125V11.7186C18.8125 11.7875 18.8353 11.8545 18.8773 11.9092L20.375 13.8561V18.1439L18.8773 20.0909Z" fill="white"/>
<path d="M23.9688 12.7188C24.1413 12.7188 24.2813 12.5788 24.2813 12.4063V11.1563C24.2813 10.9838 24.1413 10.8438 23.9688 10.8438C23.7962 10.8438 23.6562 10.9837 23.6562 11.1563V12.4063C23.6562 12.5788 23.7962 12.7188 23.9688 12.7188Z" fill="white"/>
<path d="M21.7813 12.7188C21.9538 12.7188 22.0938 12.5788 22.0938 12.4063V11.1563C22.0938 10.9838 21.9538 10.8438 21.7813 10.8438C21.6087 10.8438 21.4688 10.9837 21.4688 11.1563V12.4063C21.4688 12.5788 21.6088 12.7188 21.7813 12.7188Z" fill="white"/>
<path d="M22.875 9.90626C23.0475 9.90626 23.1875 9.76626 23.1875 9.59375V8.34375C23.1875 8.17125 23.0475 8.03125 22.875 8.03125C22.7025 8.03125 22.5625 8.17125 22.5625 8.34375V9.59375C22.5625 9.76626 22.7025 9.90626 22.875 9.90626Z" fill="white"/>
<path d="M20.6875 9.90626C20.86 9.90626 21 9.76626 21 9.59375V8.34375C21 8.17125 20.86 8.03125 20.6875 8.03125C20.515 8.03125 20.375 8.17125 20.375 8.34375V9.59375C20.375 9.76626 20.515 9.90626 20.6875 9.90626Z" fill="white"/>
<path d="M24.75 8.34375V9.59375C24.75 9.76626 24.89 9.90626 25.0625 9.90626C25.235 9.90626 25.375 9.76626 25.375 9.59375V8.34375C25.375 8.17125 25.235 8.03125 25.0625 8.03125C24.89 8.03125 24.75 8.17126 24.75 8.34375Z" fill="white"/>
<path d="M22.5625 15.2188C22.5625 15.3912 22.7025 15.5313 22.875 15.5313C23.0475 15.5313 23.1875 15.3913 23.1875 15.2188V13.9688C23.1875 13.7963 23.0475 13.6562 22.875 13.6562C22.7025 13.6562 22.5625 13.7962 22.5625 13.9688V15.2188Z" fill="white"/>
<path d="M25.0625 15.5313C25.235 15.5313 25.375 15.3913 25.375 15.2188V13.9688C25.375 13.7963 25.235 13.6562 25.0625 13.6562C24.89 13.6562 24.75 13.7962 24.75 13.9688V15.2188C24.75 15.3913 24.89 15.5313 25.0625 15.5313Z" fill="white"/>
<path d="M23.6562 20.8438C23.6562 21.0163 23.7962 21.1563 23.9688 21.1563C24.1413 21.1563 24.2813 21.0163 24.2813 20.8438V19.5938C24.2813 19.4212 24.1413 19.2812 23.9688 19.2812C23.7962 19.2812 23.6562 19.4212 23.6562 19.5938V20.8438Z" fill="white"/>
<path d="M21.4688 20.8438C21.4688 21.0163 21.6087 21.1563 21.7813 21.1563C21.9538 21.1563 22.0938 21.0163 22.0938 20.8438V19.5938C22.0938 19.4212 21.9538 19.2812 21.7813 19.2812C21.6087 19.2812 21.4688 19.4212 21.4688 19.5938V20.8438Z" fill="white"/>
<path d="M22.5625 23.6563C22.5625 23.8288 22.7025 23.9688 22.875 23.9688C23.0475 23.9688 23.1875 23.8288 23.1875 23.6563V22.4063C23.1875 22.2337 23.0475 22.0938 22.875 22.0938C22.7025 22.0938 22.5625 22.2337 22.5625 22.4063V23.6563Z" fill="white"/>
<path d="M21 23.6563V22.4063C21 22.2337 20.86 22.0938 20.6875 22.0938C20.515 22.0938 20.375 22.2337 20.375 22.4063V23.6563C20.375 23.8288 20.515 23.9688 20.6875 23.9688C20.86 23.9688 21 23.8287 21 23.6563Z" fill="white"/>
<path d="M24.75 23.6563C24.75 23.8288 24.89 23.9688 25.0625 23.9688C25.235 23.9688 25.375 23.8288 25.375 23.6563V22.4063C25.375 22.2337 25.235 22.0938 25.0625 22.0938C24.89 22.0938 24.75 22.2337 24.75 22.4063V23.6563Z" fill="white"/>
<path d="M22.5625 18.0313C22.5625 18.2038 22.7025 18.3438 22.875 18.3438C23.0475 18.3438 23.1875 18.2038 23.1875 18.0313V16.7813C23.1875 16.6087 23.0475 16.4688 22.875 16.4688C22.7025 16.4688 22.5625 16.6087 22.5625 16.7813V18.0313Z" fill="white"/>
<path d="M24.75 18.0313C24.75 18.2038 24.89 18.3438 25.0625 18.3438C25.235 18.3438 25.375 18.2038 25.375 18.0313V16.7813C25.375 16.6087 25.235 16.4688 25.0625 16.4688C24.89 16.4688 24.75 16.6087 24.75 16.7813V18.0313Z" fill="white"/>
<path d="M7.25 19.7507H9.66344L11.7858 21.0241C11.9341 21.113 12.0978 21.1577 12.2617 21.1577C12.418 21.1577 12.5745 21.1171 12.718 21.0358C13.0119 20.8694 13.1875 20.5683 13.1875 20.2304V17.8474C14.0728 17.6979 14.75 16.9279 14.75 16.0007C14.75 15.0735 14.0728 14.3036 13.1875 14.1541V11.771C13.1875 11.433 13.0119 11.1321 12.718 10.9655C12.4239 10.7991 12.0755 10.8035 11.7858 10.9772L9.66344 12.2507H7.25C6.56078 12.2507 6 12.8115 6 13.5007V18.5007C6 19.1899 6.56078 19.7507 7.25 19.7507ZM14.125 16.0007C14.125 16.5819 13.7258 17.0702 13.1875 17.2096V14.7926C13.7256 14.9318 14.125 15.4196 14.125 16.0007ZM12.1073 11.5132C12.243 11.4318 12.3642 11.4835 12.4102 11.5094C12.4558 11.5354 12.5625 11.6127 12.5625 11.771V20.2305C12.5625 20.3887 12.4558 20.4662 12.41 20.4921C12.3642 20.518 12.2428 20.5696 12.1072 20.4883L10.0625 19.2613V12.7401L12.1073 11.5132ZM6.62499 13.5007C6.62499 13.156 6.90531 12.8757 7.24999 12.8757H9.4375V19.1257H7.25C6.90531 19.1257 6.625 18.8454 6.625 18.5007L6.62499 13.5007Z" fill="white"/>
</svg>
