<svg width="32" height="32" viewBox="0 0 32 32" fill="none" xmlns="http://www.w3.org/2000/svg">
<rect width="31.67" height="31.67" rx="15.835" fill="#AB813E"/>
<path d="M23.703 14.9768L20.6672 13.1552C20.5985 13.1052 20.52 13.0702 20.437 13.0525C20.3539 13.0347 20.268 13.0346 20.1849 13.0521C20.1017 13.0696 20.0232 13.1044 19.9544 13.1542C19.8855 13.204 19.8279 13.2676 19.7852 13.3411C19.7425 13.4145 19.7157 13.4961 19.7065 13.5806C19.6973 13.665 19.7059 13.7505 19.7318 13.8314C19.7577 13.9123 19.8003 13.9869 19.8568 14.0503C19.9134 14.1137 19.9826 14.1646 20.06 14.1996L21.2015 14.8918H7.60716C7.44613 14.8918 7.2917 14.9558 7.17783 15.0696C7.06397 15.1835 7 15.3379 7 15.499C7 15.66 7.06397 15.8145 7.17783 15.9283C7.2917 16.0422 7.44613 16.1062 7.60716 16.1062H21.2015L20.0479 16.7984C19.9335 16.8663 19.8445 16.9698 19.7947 17.0932C19.7449 17.2165 19.737 17.3528 19.7722 17.4811C19.8073 17.6094 19.8837 17.7226 19.9894 17.8033C20.0952 17.884 20.2245 17.9277 20.3575 17.9278C20.4665 17.9277 20.5735 17.8984 20.6672 17.8428L23.703 16.0212C23.7936 15.9674 23.8686 15.891 23.9208 15.7994C23.9729 15.7079 24.0003 15.6043 24.0003 15.499C24.0003 15.3936 23.9729 15.2901 23.9208 15.1985C23.8686 15.107 23.7936 15.0305 23.703 14.9768Z" fill="white"/>
<path d="M10.0368 11.8576H17.9846C18.3055 11.8571 18.623 11.7916 18.918 11.6653C19.213 11.5389 19.4794 11.3541 19.7011 11.1221C19.9229 10.8902 20.0955 10.6157 20.2084 10.3153C20.3214 10.0149 20.3725 9.69478 20.3586 9.37414C20.3586 9.06237 20.2972 8.75364 20.1779 8.4656C20.0586 8.17755 19.8837 7.91583 19.6632 7.69537C19.4428 7.47491 19.1811 7.30003 18.8931 7.18072C18.605 7.06141 18.2963 7 17.9846 7C17.8235 7 17.6691 7.06397 17.5552 7.17784C17.4414 7.29172 17.3774 7.44616 17.3774 7.6072C17.3774 7.76824 17.4414 7.92268 17.5552 8.03655C17.6691 8.15042 17.8235 8.21439 17.9846 8.21439C18.2916 8.21599 18.5857 8.33869 18.8028 8.55584C19.02 8.77299 19.1427 9.06705 19.1442 9.37414C19.1586 9.53518 19.1392 9.69744 19.0875 9.8506C19.0357 10.0038 18.9527 10.1445 18.8436 10.2638C18.7345 10.3832 18.6019 10.4785 18.454 10.5438C18.3061 10.6091 18.1462 10.643 17.9846 10.6432H10.0368C9.87582 10.6432 9.72139 10.7072 9.60752 10.821C9.49366 10.9349 9.42969 11.0893 9.42969 11.2504C9.42969 11.4114 9.49366 11.5659 9.60752 11.6797C9.72139 11.7936 9.87582 11.8576 10.0368 11.8576Z" fill="white"/>
<path d="M17.9846 19.1426H10.0368C9.87582 19.1426 9.72139 19.2066 9.60752 19.3204C9.49366 19.4343 9.42969 19.5887 9.42969 19.7498C9.42969 19.9108 9.49366 20.0653 9.60752 20.1791C9.72139 20.293 9.87582 20.357 10.0368 20.357H17.9846C18.3066 20.357 18.6155 20.4849 18.8432 20.7127C19.071 20.9404 19.1989 21.2493 19.1989 21.5714C19.1989 21.8934 19.071 22.2023 18.8432 22.4301C18.6155 22.6578 18.3066 22.7858 17.9846 22.7858C17.8235 22.7858 17.6691 22.8497 17.5552 22.9636C17.4414 23.0775 17.3774 23.2319 17.3774 23.393C17.3774 23.554 17.4414 23.7084 17.5552 23.8223C17.6691 23.9362 17.8235 24.0002 17.9846 24.0002C18.6287 24.0002 19.2464 23.7443 19.7019 23.2888C20.1573 22.8333 20.4132 22.2155 20.4132 21.5714C20.4132 20.9272 20.1573 20.3094 19.7019 19.854C19.2464 19.3985 18.6287 19.1426 17.9846 19.1426Z" fill="white"/>
</svg>
