<?xml version="1.0" encoding="UTF-8"?><svg id="Layer_1" xmlns="http://www.w3.org/2000/svg" viewBox="0 0 1080 1080"><defs><style>.cls-1{fill:#32388c;}.cls-2{fill:#1a1a1a;}</style></defs><g><path class="cls-1" d="M681.75,262.61c-6.56-2.07-14.48-2.83-17.77-2.88-71.43-1-143.69-2.85-212.92,17.99-37.9,11.41-79.6,31.88-94.13,71.5-.13,.36-.26,.72-.39,1.08-41.08,116.91,135.87,120.07,132.71,224.34-.36,11.82-6.24,22.24-15.73,29.3-11.1,8.26-26.07,11.97-39.7,12.4-22.2,.69-44.58-.32-66.79-.48-25.1-.18-50.17-.15-75.26-.15v28.71h228.88s87.1,7.63,71.3-99.8c.06,.4,4.43,.6,4.76,.62,9.21,.57,18.89-1.55,26.76-6.45,7.3-4.54,13.25-11.02,20.97-14.93,5.57-2.82,11.86-4.17,17.11-7.56-.52,.33,.95,8.92,1.08,10.25,.35,3.51,.65,7.02,.93,10.53,.73,9.37,1.22,18.75,1.41,28.15,.45,21.29-.12,43.24-5.39,63.98-1.73,6.81-4.04,13.59-7.59,19.68h136.24v-21.14h-76.2v-38.08c0-16.51-3.43-36.65,2.64-52.43,3.39-8.81,12.01-12.2,17.05-19.56,3.22-4.71,3.62-11.2,2.83-16.67-1.67-11.66-5.97-25.27-16.18-32.19-14.17-9.6-38.8-3.71-48.57,8.95-13.93,18.05-35.58,32.56-58.25,36.4-22.6,3.83-39.01-6.91-53.32-23.47-15.94-18.45-34.24-30.59-55.09-42.74-19.12-11.14-39.25-23.61-48.55-44.69-14.55-32.98,10.54-71.45,38.82-86.46,30.86-16.37,66.03-22.51,100.46-25.83,17.49-1.69,35.04-2.59,52.58-3.53,12.42-.67,34.79-.3,43.39-11.45,5.28-6.84-.5-10.99-8.09-13.38Z"/><ellipse class="cls-1" cx="743.62" cy="410.34" rx="37.92" ry="33.18" transform="translate(137.96 1005.76) rotate(-73.4)"/></g><g><path class="cls-2" d="M252.65,713.74c5.45,0,9.63,.58,12.54,1.75,2.92,1.17,5.45,2.43,7.58,3.79,1.17,.68,2.12,1.19,2.85,1.53,.73,.34,1.43,.51,2.12,.51,.97,0,1.68-.53,2.11-1.6,.44-1.07,.8-2.67,1.1-4.81h3.35c-.1,1.85-.22,3.99-.36,6.42-.15,2.43-.24,5.67-.29,9.7-.05,4.04-.07,9.36-.07,15.97h-3.35c-.29-4.96-1.39-9.72-3.28-14.3-1.9-4.57-4.57-8.33-8.02-11.3-3.45-2.97-7.85-4.45-13.2-4.45-4.77,0-8.73,1.41-11.89,4.23s-4.74,6.62-4.74,11.38c0,4.09,1.02,7.51,3.06,10.28,2.04,2.77,4.93,5.45,8.68,8.02s8.19,5.52,13.35,8.82c4.76,3.11,9.04,6.2,12.84,9.26s6.78,6.44,8.97,10.14c2.19,3.7,3.28,8.22,3.28,13.57,0,6.32-1.56,11.57-4.67,15.75-3.11,4.18-7.29,7.29-12.54,9.33s-10.99,3.06-17.21,3.06c-5.74,0-10.28-.58-13.64-1.75-3.35-1.17-6.25-2.38-8.68-3.65-2.14-1.36-3.79-2.04-4.96-2.04-.98,0-1.68,.54-2.12,1.6-.44,1.07-.8,2.68-1.09,4.81h-3.36c.19-2.24,.31-4.86,.37-7.88,.05-3.01,.1-6.93,.15-11.74,.05-4.81,.07-10.91,.07-18.3h3.36c.39,6.22,1.48,12.03,3.28,17.43,1.8,5.4,4.57,9.75,8.32,13.06,3.74,3.31,8.73,4.96,14.95,4.96,3.4,0,6.49-.6,9.26-1.82,2.77-1.21,4.98-3.11,6.63-5.69s2.48-5.86,2.48-9.85-.93-7.49-2.77-10.5c-1.85-3.01-4.43-5.84-7.73-8.46-3.31-2.63-7.2-5.3-11.67-8.02-4.57-2.92-8.85-5.88-12.84-8.9s-7.17-6.44-9.55-10.28c-2.39-3.84-3.57-8.48-3.57-13.93,0-6.03,1.46-10.96,4.38-14.81,2.92-3.84,6.73-6.69,11.45-8.54,4.72-1.85,9.75-2.77,15.1-2.77Z"/><path class="cls-2" d="M360.29,715.06l35.45,91.46c1.46,3.5,3.04,5.91,4.74,7.22,1.7,1.31,3.28,2.02,4.74,2.12v2.92c-2.53-.19-5.57-.31-9.12-.36s-7.17-.07-10.86-.07c-4.28,0-8.27,.02-11.96,.07-3.7,.05-6.71,.17-9.04,.36v-2.92c4.96-.19,8.12-1.05,9.48-2.55,1.36-1.51,1.07-4.74-.87-9.7l-25.67-69.29,2.63-3.21-23.34,60.54c-1.85,4.86-2.97,8.85-3.36,11.96-.39,3.11-.15,5.54,.73,7.29,.87,1.75,2.33,2.99,4.38,3.72,2.04,.73,4.57,1.14,7.58,1.24v2.92c-3.11-.19-6.13-.31-9.04-.36-2.92-.05-5.84-.07-8.75-.07-2.14,0-4.16,.02-6.05,.07-1.89,.05-3.57,.17-5.03,.36v-2.92c2.14-.49,4.26-1.75,6.35-3.79,2.09-2.04,4.11-5.59,6.05-10.65l33.4-86.35c1.17,.1,2.43,.15,3.79,.15s2.63-.05,3.79-.15Zm12.69,61.7v2.92h-43.47l1.46-2.92h42.01Z"/><path class="cls-2" d="M515.93,715.49v2.92c-3.11,.29-5.5,1-7.15,2.11-1.65,1.12-2.75,2.87-3.28,5.25-.53,2.39-.8,5.76-.8,10.14v83.29c-.87-.1-1.82-.15-2.84-.15s-2.12,.05-3.28,.15l-62.58-85.04v63.01c0,4.67,.29,8.29,.88,10.87s1.87,4.42,3.86,5.54c1.99,1.12,5.03,1.87,9.12,2.26v2.92c-1.85-.19-4.23-.31-7.15-.36-2.92-.05-5.69-.07-8.31-.07-2.33,0-4.69,.02-7.08,.07s-4.35,.17-5.91,.36v-2.92c3.21-.39,5.62-1.12,7.22-2.19s2.67-2.82,3.21-5.25c.53-2.43,.8-5.79,.8-10.07v-67.39c0-3.59-.27-6.25-.8-7.95-.54-1.7-1.6-2.87-3.21-3.5-1.6-.63-4.01-.99-7.22-1.09v-2.92c1.56,.1,3.52,.19,5.91,.29,2.38,.1,4.74,.15,7.08,.15s4.42-.05,6.56-.15c2.14-.1,4.04-.19,5.69-.29l54.7,72.78v-51.2c0-4.76-.29-8.41-.87-10.94-.59-2.53-1.85-4.38-3.79-5.54-1.95-1.17-5.01-1.89-9.19-2.19v-2.92c1.85,.1,4.26,.19,7.22,.29,2.97,.1,5.71,.15,8.24,.15s4.84-.05,7.22-.15c2.38-.1,4.3-.19,5.76-.29Z"/><path class="cls-2" d="M575.01,713.74c5.45,0,9.63,.58,12.54,1.75,2.92,1.17,5.45,2.43,7.58,3.79,1.17,.68,2.12,1.19,2.85,1.53,.73,.34,1.43,.51,2.12,.51,.97,0,1.68-.53,2.11-1.6,.44-1.07,.8-2.67,1.1-4.81h3.35c-.1,1.85-.22,3.99-.36,6.42-.15,2.43-.24,5.67-.29,9.7-.05,4.04-.07,9.36-.07,15.97h-3.35c-.29-4.96-1.39-9.72-3.28-14.3-1.9-4.57-4.57-8.33-8.02-11.3-3.45-2.97-7.85-4.45-13.2-4.45-4.77,0-8.73,1.41-11.89,4.23s-4.74,6.62-4.74,11.38c0,4.09,1.02,7.51,3.06,10.28,2.04,2.77,4.93,5.45,8.68,8.02s8.19,5.52,13.35,8.82c4.76,3.11,9.04,6.2,12.84,9.26s6.78,6.44,8.97,10.14c2.19,3.7,3.28,8.22,3.28,13.57,0,6.32-1.56,11.57-4.67,15.75-3.11,4.18-7.29,7.29-12.54,9.33s-10.99,3.06-17.21,3.06c-5.74,0-10.28-.58-13.64-1.75-3.35-1.17-6.25-2.38-8.68-3.65-2.14-1.36-3.79-2.04-4.96-2.04-.98,0-1.68,.54-2.12,1.6-.44,1.07-.8,2.68-1.09,4.81h-3.36c.19-2.24,.31-4.86,.37-7.88,.05-3.01,.1-6.93,.15-11.74,.05-4.81,.07-10.91,.07-18.3h3.36c.39,6.22,1.48,12.03,3.28,17.43,1.8,5.4,4.57,9.75,8.32,13.06,3.74,3.31,8.73,4.96,14.95,4.96,3.4,0,6.49-.6,9.26-1.82,2.77-1.21,4.98-3.11,6.63-5.69s2.48-5.86,2.48-9.85-.93-7.49-2.77-10.5c-1.85-3.01-4.43-5.84-7.73-8.46-3.31-2.63-7.2-5.3-11.67-8.02-4.57-2.92-8.85-5.88-12.84-8.9s-7.17-6.44-9.55-10.28c-2.39-3.84-3.57-8.48-3.57-13.93,0-6.03,1.46-10.96,4.38-14.81,2.92-3.84,6.73-6.69,11.45-8.54,4.72-1.85,9.75-2.77,15.1-2.77Z"/><path class="cls-2" d="M689.22,713.45c9.92,0,18.62,2.09,26.11,6.27,7.49,4.18,13.3,10.19,17.43,18.01,4.13,7.83,6.2,17.34,6.2,28.52s-2.11,20.42-6.34,28.59-10.12,14.54-17.65,19.11c-7.54,4.57-16.17,6.86-25.89,6.86s-18.62-2.09-26.11-6.27c-7.49-4.18-13.3-10.21-17.43-18.09-4.13-7.88-6.2-17.36-6.2-28.44s2.14-20.42,6.42-28.59,10.16-14.54,17.65-19.11c7.49-4.57,16.09-6.85,25.82-6.85Zm-.58,2.63c-5.74,0-10.72,2.19-14.95,6.56-4.23,4.38-7.51,10.41-9.85,18.09-2.33,7.68-3.5,16.58-3.5,26.69s1.31,19.28,3.94,26.91c2.63,7.64,6.15,13.52,10.57,17.65,4.42,4.13,9.36,6.2,14.81,6.2,5.74,0,10.72-2.19,14.95-6.56s7.51-10.43,9.85-18.16c2.33-7.73,3.5-16.6,3.5-26.62s-1.31-19.4-3.94-26.98c-2.63-7.58-6.15-13.44-10.57-17.58-4.43-4.13-9.36-6.2-14.81-6.2Z"/><path class="cls-2" d="M859.01,715.49v2.92c-3.11,.29-5.5,1-7.15,2.11-1.65,1.12-2.75,2.87-3.28,5.25-.53,2.39-.8,5.76-.8,10.14v83.29c-.87-.1-1.82-.15-2.84-.15s-2.12,.05-3.28,.15l-62.58-85.04v63.01c0,4.67,.29,8.29,.88,10.87s1.87,4.42,3.86,5.54c1.99,1.12,5.03,1.87,9.12,2.26v2.92c-1.85-.19-4.23-.31-7.15-.36-2.92-.05-5.69-.07-8.31-.07-2.33,0-4.69,.02-7.08,.07s-4.35,.17-5.91,.36v-2.92c3.21-.39,5.62-1.12,7.22-2.19s2.67-2.82,3.21-5.25c.53-2.43,.8-5.79,.8-10.07v-67.39c0-3.59-.27-6.25-.8-7.95-.54-1.7-1.6-2.87-3.21-3.5-1.6-.63-4.01-.99-7.22-1.09v-2.92c1.56,.1,3.52,.19,5.91,.29,2.38,.1,4.74,.15,7.08,.15s4.42-.05,6.56-.15c2.14-.1,4.04-.19,5.69-.29l54.7,72.78v-51.2c0-4.76-.29-8.41-.87-10.94-.59-2.53-1.85-4.38-3.79-5.54-1.95-1.17-5.01-1.89-9.19-2.19v-2.92c1.85,.1,4.26,.19,7.22,.29,2.97,.1,5.71,.15,8.24,.15s4.84-.05,7.22-.15c2.38-.1,4.3-.19,5.76-.29Z"/></g></svg>